<svg xmlns="http://www.w3.org/2000/svg" xmlns:xlink="http://www.w3.org/1999/xlink" width="50" height="31.5" viewBox="0 0 50 31.5">
  <defs>
    <linearGradient id="linear-gradient" x1="0.5" x2="0.5" y2="1" gradientUnits="objectBoundingBox">
      <stop offset="0" stop-color="#30c0e2"/>
      <stop offset="1" stop-color="#8956f3"/>
    </linearGradient>
  </defs>
  <path id="Icon_awesome-cc-discover" data-name="Icon awesome-cc-discover" d="M45.174,13.788c0-.555-.477-.851-1.354-.851h-.425v1.751H43.8C44.7,14.688,45.174,14.379,45.174,13.788Zm.66-11.538H4.167C1.866,2.25,0,3.762,0,5.625v24.75c0,1.863,1.866,3.375,4.167,3.375H45.833c2.3,0,4.167-1.512,4.167-3.375V5.625C50,3.762,48.134,2.25,45.833,2.25Zm-3.828,9.766c1.962,0,4.592-.288,4.592,1.716,0,.886-.573,1.455-1.623,1.631l2.24,2.419h-1.7l-1.927-2.306h-.191v2.306H42.005Zm-4.852.007h3.932v.984H38.542v1.28H41v.97H38.542v1.561h2.543v.97H37.153Zm-5.964,0,1.9,3.881,1.927-3.881h1.519l-3.082,5.92h-.747l-3.038-5.92Zm-4.852-.211c2.144,0,3.872,1.406,3.872,3.136s-1.736,3.136-3.872,3.136-3.872-1.406-3.872-3.136S24.2,11.813,26.337,11.813Zm-4.28.429v1.336c-1.745-1.413-4.062-.33-4.062,1.336,0,1.758,2.387,2.707,4.063,1.35V17.6c-2.578,1.005-5.495-.4-5.495-2.686,0-2.194,2.873-3.727,5.495-2.672ZM13.62,16.9c.99,0,1.944-1.076-.286-1.716-1.3-.387-1.753-.8-1.753-1.6,0-1.631,2.656-2.208,4.314-1.005l-.729.759c-.9-.816-2.161-.436-2.161.176,0,.309.234.485,1.068.724,1.58.464,2.049.879,2.049,1.8,0,2.074-3.368,2.63-4.913.795l.894-.7a1.718,1.718,0,0,0,1.519.759Zm-8.811.886H2.778V12.023H4.809c2.266,0,3.828,1.2,3.828,2.89C8.637,16.214,7.491,17.789,4.809,17.789Zm5.859,0H9.28V12.023h1.389ZM47.222,30.445a1.207,1.207,0,0,1-1.3,1.055H11.111c16.458-2.5,33.22-9.788,36.111-11.25ZM6.432,13.472a2.937,2.937,0,0,0-1.9-.464H4.167v3.811h.365a3.122,3.122,0,0,0,1.9-.45A1.818,1.818,0,0,0,7.2,14.913a1.773,1.773,0,0,0-.773-1.441Z" transform="translate(0 -2.25)" fill="url(#linear-gradient)"/>
</svg>
