<svg xmlns="http://www.w3.org/2000/svg" xmlns:xlink="http://www.w3.org/1999/xlink" width="44" height="47.374" viewBox="0 0 44 47.374">
  <defs>
    <linearGradient id="linear-gradient" x1="0.5" x2="0.5" y2="1" gradientUnits="objectBoundingBox">
      <stop offset="0" stop-color="#30c0e2"/>
      <stop offset="1" stop-color="#8956f3"/>
    </linearGradient>
  </defs>
  <path id="Icon_awesome-fort-awesome" data-name="Icon awesome-fort-awesome" d="M44.863,26.64H42.328a.419.419,0,0,0-.426.426v2.961H38.515v-16.5a.419.419,0,0,0-.426-.426H35.554a.419.419,0,0,0-.426.426v2.961H31.742V13.528a.419.419,0,0,0-.426-.426H28.781a.419.419,0,0,0-.426.426v2.961H24.968V13.528c0-.555-.74-.426-1.083-.426V9.586a10.286,10.286,0,0,1,2.378-.315c1.009,0,1.934.4,2.906.4.426,0,2.563-.1,2.563-.74V3.377a.419.419,0,0,0-.426-.426c-.472,0-1.4.4-2.221.4-.9,0-1.934-.4-3.017-.4a9.677,9.677,0,0,0-2.193.268V2.766a1.5,1.5,0,0,0,.842-1.323,1.453,1.453,0,0,0-2.906,0,1.5,1.5,0,0,0,.842,1.323V13.1c-.342,0-1.083-.13-1.083.426v2.961H18.186V13.528a.419.419,0,0,0-.426-.426H15.224a.419.419,0,0,0-.426.426v2.961H11.44V13.528a.419.419,0,0,0-.426-.426H8.479a.419.419,0,0,0-.426.426v16.5H4.666V27.065a.419.419,0,0,0-.426-.426H1.705a.419.419,0,0,0-.426.426V47.376H18.2V38.493c0-6.718,10.151-6.718,10.151,0v8.883H45.279V27.065A.406.406,0,0,0,44.863,26.64ZM18.2,26.223a.419.419,0,0,1-.426.426H15.243a.419.419,0,0,1-.426-.426V20.3a.419.419,0,0,1,.426-.426h2.535a.419.419,0,0,1,.426.426Zm13.547,0a.419.419,0,0,1-.426.426H28.79a.419.419,0,0,1-.426-.426V20.3a.419.419,0,0,1,.426-.426h2.535a.419.419,0,0,1,.426.426Z" transform="translate(-1.28 -0.003)" fill="url(#linear-gradient)"/>
</svg>
