<svg xmlns="http://www.w3.org/2000/svg" width="469" height="482.001" viewBox="0 0 469 482.001">
  <g id="Group_262" data-name="Group 262" transform="translate(-954.396 -6369.404)">
    <g id="Layer_1" transform="translate(954.823 6369.094)">
      <path id="Path_1" data-name="Path 1" d="M207.1,147.216c0-17.565-14.249-31-32-31-17.721,0-32,13.4-32,31a32.08,32.08,0,0,0,23,31v243h18v-243A32.081,32.081,0,0,0,207.1,147.216Z" transform="translate(59.471 61.095)" fill="#fff"/>
      <path id="Path_2" data-name="Path 2" d="M175.1,121.15c17.721,0,32-13.4,32-31a32,32,0,0,0-64,0C143.1,107.746,157.381,121.15,175.1,121.15Z" transform="translate(59.471 -57.84)" fill="#fff"/>
      <circle id="Ellipse_1" data-name="Ellipse 1" cx="22.5" cy="22.5" r="22.5" transform="translate(317.573 9.311)" fill="#fff"/>
      <path id="Path_3" data-name="Path 3" d="M220.349,134.278a22,22,0,0,0,0-44c-12.429,0-23,9.68-23,22S207.92,134.278,220.349,134.278Z" transform="translate(173.224 8.032)" fill="#fff"/>
      <path id="Path_4" data-name="Path 4" d="M255.613,214.2l-27-45c5.445-5.7,9-12.522,9-21a32.167,32.167,0,0,0-63-9h-54a22.9,22.9,0,0,0-44,9c0,12.32,10.571,22,23,22a23.2,23.2,0,0,0,21-14h54a32.163,32.163,0,0,0,31,23,31.419,31.419,0,0,0,8-1l27,45a20.811,20.811,0,0,0-4,16c1.2,7.99,6.016,15.042,13,18v164h18v-165a20.978,20.978,0,0,0,13-23A22.273,22.273,0,0,0,255.613,214.2Z" transform="translate(-77.04 61.116)" fill="#fff"/>
      <path id="Path_5" data-name="Path 5" d="M351.3,184.693a23.2,23.2,0,0,0-21,14h-54a32.163,32.163,0,0,0-31-23,31.415,31.415,0,0,0-8,1l-22-36a31.834,31.834,0,1,0-23,10,31.416,31.416,0,0,0,8-1l22,36c-5.445,5.7-9,12.522-9,21a31.918,31.918,0,0,0,9,22l-27,45a24.628,24.628,0,0,0-3,0c-12.429,0-23,9.68-23,22a23.144,23.144,0,0,0,14,21v164h18v-164c8.092-3.385,13-11.76,13-21a21.212,21.212,0,0,0-4-13l27-45a31.416,31.416,0,0,0,8,1,32.136,32.136,0,0,0,31-23h54a23.2,23.2,0,0,0,21,14c12.429,0,22-10.68,22-23A21.738,21.738,0,0,0,351.3,184.693Z" transform="translate(95.271 1.617)" fill="#fff"/>
      <path id="Path_6" data-name="Path 6" d="M116.876,134.278a22,22,0,0,0,0-44c-12.429,0-23,9.68-23,22S104.447,134.278,116.876,134.278Z" transform="translate(-41.303 8.032)" fill="#fff"/>
      <circle id="Ellipse_2" data-name="Ellipse 2" cx="22.5" cy="22.5" r="22.5" transform="translate(105.573 9.311)" fill="#fff"/>
      <path id="Path_7" data-name="Path 7" d="M157.839,150.693a32,32,0,1,0-32-32A32.019,32.019,0,0,0,157.839,150.693Z" transform="translate(23.734 1.617)" fill="#fff"/>
      <path id="Path_8" data-name="Path 8" d="M246.825,144.737a32.019,32.019,0,0,0-32,32,30.106,30.106,0,0,0,5,17l-35,40v128h18v-122l30-34a33.5,33.5,0,0,0,14,3,32,32,0,0,0,0-64Z" transform="translate(146.748 120.573)" fill="#fff"/>
      <path id="Path_9" data-name="Path 9" d="M155.355,176.737a32,32,0,1,0-32,32,33.977,33.977,0,0,0,14-3l30,34v122h18v-128l-35-40A30.349,30.349,0,0,0,155.355,176.737Z" transform="translate(-47.782 120.573)" fill="#fff"/>
    </g>
  </g>
</svg>
