<svg xmlns="http://www.w3.org/2000/svg" xmlns:xlink="http://www.w3.org/1999/xlink" width="42" height="42" viewBox="0 0 42 42">
  <defs>
    <linearGradient id="linear-gradient" x1="0.5" x2="0.5" y2="1" gradientUnits="objectBoundingBox">
      <stop offset="0" stop-color="#30c0e2"/>
      <stop offset="1" stop-color="#8956f3"/>
    </linearGradient>
  </defs>
  <path id="Icon_map-point-of-interest" data-name="Icon map-point-of-interest" d="M26.97,21.722a5.249,5.249,0,1,0,5.25,5.249,5.249,5.249,0,0,0-5.25-5.249Zm10.5-10.5L33.147,2.5A2.617,2.617,0,0,0,30.663.72H23.453a2.618,2.618,0,0,0-2.5,1.816L16.476,11.22H5.969A5.254,5.254,0,0,0,.72,16.471V42.72h42V16.471a5.254,5.254,0,0,0-5.248-5.253ZM8.595,21.722a2.621,2.621,0,1,1,1.856-.768,2.623,2.623,0,0,1-1.856.768ZM26.97,37.475a10.5,10.5,0,1,1,10.5-10.505A10.506,10.506,0,0,1,26.97,37.475Z" transform="translate(-0.72 -0.72)" fill="url(#linear-gradient)"/>
</svg>
