<svg xmlns="http://www.w3.org/2000/svg" width="151.581" height="155.783" viewBox="0 0 151.581 155.783">
  <g id="Group_4481" data-name="Group 4481" transform="translate(-36 -6215)" opacity="0.071">
    <g id="Group_263" data-name="Group 263" transform="translate(-918.396 -154.405)">
      <g id="Layer_1" transform="translate(954.396 6369.405)">
        <path id="Path_1" data-name="Path 1" d="M153.444,121.225a5.174,5.174,0,0,0-10.342,0,5.184,5.184,0,0,0,3.717,5.01V165.5h2.909V126.235A5.184,5.184,0,0,0,153.444,121.225Z" transform="translate(-110.297 -87.612)" fill="#fff"/>
        <path id="Path_2" data-name="Path 2" d="M148.273,68.331a5.039,5.039,0,0,0,5.171-5.01,5.171,5.171,0,0,0-10.342,0A5.039,5.039,0,0,0,148.273,68.331Z" transform="translate(-110.297 -58.15)" fill="#fff"/>
        <circle id="Ellipse_1" data-name="Ellipse 1" cx="4" cy="4" r="4" transform="translate(51 1)" fill="#fff"/>
        <path id="Path_3" data-name="Path 3" d="M201.066,97.389a3.555,3.555,0,1,0,0-7.11,3.559,3.559,0,1,0,0,7.11Z" transform="translate(-137.395 -74.441)" fill="#fff"/>
        <path id="Path_4" data-name="Path 4" d="M105.539,132.032l-4.363-7.272a4.8,4.8,0,0,0,1.454-3.394,5.2,5.2,0,0,0-10.181-1.454H83.723a3.7,3.7,0,0,0-7.11,1.454,3.649,3.649,0,0,0,3.717,3.555,3.75,3.75,0,0,0,3.394-2.262H92.45a5.2,5.2,0,0,0,5.01,3.717,5.077,5.077,0,0,0,1.293-.162l4.363,7.272a3.363,3.363,0,0,0-.646,2.586,3.708,3.708,0,0,0,2.1,2.909v26.5h2.909V138.819a3.39,3.39,0,0,0,2.1-3.717A3.6,3.6,0,0,0,105.539,132.032Z" transform="translate(-76.613 -87.592)" fill="#fff"/>
        <path id="Path_5" data-name="Path 5" d="M191.168,102.53a3.75,3.75,0,0,0-3.394,2.262h-8.726a5.2,5.2,0,0,0-5.01-3.717,5.077,5.077,0,0,0-1.293.162L169.19,95.42a5.144,5.144,0,1,0-3.717,1.616,5.077,5.077,0,0,0,1.293-.162l3.555,5.818a4.8,4.8,0,0,0-1.454,3.394,5.158,5.158,0,0,0,1.454,3.555l-4.363,7.272a3.979,3.979,0,0,0-.485,0,3.649,3.649,0,0,0-3.717,3.555,3.74,3.74,0,0,0,2.262,3.394v26.5h2.909v-26.5a3.6,3.6,0,0,0,2.1-3.394,3.428,3.428,0,0,0-.646-2.1l4.363-7.272a5.077,5.077,0,0,0,1.293.162,5.193,5.193,0,0,0,5.01-3.717h8.726a3.75,3.75,0,0,0,3.394,2.262,3.649,3.649,0,0,0,3.555-3.717A3.513,3.513,0,0,0,191.168,102.53Z" transform="translate(-118.933 -72.472)" fill="#fff"/>
        <path id="Path_6" data-name="Path 6" d="M97.593,97.389a3.555,3.555,0,0,0,0-7.11,3.559,3.559,0,1,0,0,7.11Z" transform="translate(-85.311 -74.441)" fill="#fff"/>
        <ellipse id="Ellipse_2" data-name="Ellipse 2" cx="3.5" cy="4" rx="3.5" ry="4" transform="translate(17 1)" fill="#fff"/>
        <path id="Path_7" data-name="Path 7" d="M131.01,97.036a5.171,5.171,0,1,0-5.171-5.171A5.174,5.174,0,0,0,131.01,97.036Z" transform="translate(-101.599 -72.472)" fill="#fff"/>
        <path id="Path_8" data-name="Path 8" d="M194.844,144.737a5.174,5.174,0,0,0-5.171,5.171,4.865,4.865,0,0,0,.808,2.747l-5.656,6.464V179.8h2.909V160.089l4.848-5.494a5.413,5.413,0,0,0,2.262.485,5.171,5.171,0,1,0,0-10.342Z" transform="translate(-131.173 -101.913)" fill="#fff"/>
        <path id="Path_9" data-name="Path 9" d="M101.7,149.909a5.171,5.171,0,1,0-5.171,5.171,5.491,5.491,0,0,0,2.262-.485l4.848,5.494V179.8h2.909V159.12l-5.656-6.464A4.9,4.9,0,0,0,101.7,149.909Z" transform="translate(-84.244 -101.913)" fill="#fff"/>
      </g>
    </g>
    <g id="Group_265" data-name="Group 265" transform="translate(-842.605 -76.513)">
      <g id="Layer_1-2" data-name="Layer_1" transform="translate(954.396 6369.405)">
        <path id="Path_1-2" data-name="Path 1" d="M153.444,121.225a5.174,5.174,0,0,0-10.342,0,5.184,5.184,0,0,0,3.717,5.01V165.5h2.909V126.235A5.184,5.184,0,0,0,153.444,121.225Z" transform="translate(-110.297 -87.612)" fill="#fff"/>
        <path id="Path_2-2" data-name="Path 2" d="M148.273,68.331a5.039,5.039,0,0,0,5.171-5.01,5.171,5.171,0,0,0-10.342,0A5.039,5.039,0,0,0,148.273,68.331Z" transform="translate(-110.297 -58.15)" fill="#fff"/>
        <circle id="Ellipse_1-2" data-name="Ellipse 1" cx="4" cy="4" r="4" transform="translate(51 1)" fill="#fff"/>
        <path id="Path_3-2" data-name="Path 3" d="M201.066,97.389a3.555,3.555,0,1,0,0-7.11,3.559,3.559,0,1,0,0,7.11Z" transform="translate(-137.395 -74.441)" fill="#fff"/>
        <path id="Path_4-2" data-name="Path 4" d="M105.539,132.032l-4.363-7.272a4.8,4.8,0,0,0,1.454-3.394,5.2,5.2,0,0,0-10.181-1.454H83.723a3.7,3.7,0,0,0-7.11,1.454,3.649,3.649,0,0,0,3.717,3.555,3.75,3.75,0,0,0,3.394-2.262H92.45a5.2,5.2,0,0,0,5.01,3.717,5.077,5.077,0,0,0,1.293-.162l4.363,7.272a3.363,3.363,0,0,0-.646,2.586,3.708,3.708,0,0,0,2.1,2.909v26.5h2.909V138.819a3.39,3.39,0,0,0,2.1-3.717A3.6,3.6,0,0,0,105.539,132.032Z" transform="translate(-76.613 -87.592)" fill="#fff"/>
        <path id="Path_5-2" data-name="Path 5" d="M191.168,102.53a3.75,3.75,0,0,0-3.394,2.262h-8.726a5.2,5.2,0,0,0-5.01-3.717,5.077,5.077,0,0,0-1.293.162L169.19,95.42a5.144,5.144,0,1,0-3.717,1.616,5.077,5.077,0,0,0,1.293-.162l3.555,5.818a4.8,4.8,0,0,0-1.454,3.394,5.158,5.158,0,0,0,1.454,3.555l-4.363,7.272a3.979,3.979,0,0,0-.485,0,3.649,3.649,0,0,0-3.717,3.555,3.74,3.74,0,0,0,2.262,3.394v26.5h2.909v-26.5a3.6,3.6,0,0,0,2.1-3.394,3.428,3.428,0,0,0-.646-2.1l4.363-7.272a5.077,5.077,0,0,0,1.293.162,5.193,5.193,0,0,0,5.01-3.717h8.726a3.75,3.75,0,0,0,3.394,2.262,3.649,3.649,0,0,0,3.555-3.717A3.513,3.513,0,0,0,191.168,102.53Z" transform="translate(-118.933 -72.472)" fill="#fff"/>
        <path id="Path_6-2" data-name="Path 6" d="M97.593,97.389a3.555,3.555,0,0,0,0-7.11,3.559,3.559,0,1,0,0,7.11Z" transform="translate(-85.311 -74.441)" fill="#fff"/>
        <ellipse id="Ellipse_2-2" data-name="Ellipse 2" cx="3.5" cy="4" rx="3.5" ry="4" transform="translate(17 1)" fill="#fff"/>
        <path id="Path_7-2" data-name="Path 7" d="M131.01,97.036a5.171,5.171,0,1,0-5.171-5.171A5.174,5.174,0,0,0,131.01,97.036Z" transform="translate(-101.599 -72.472)" fill="#fff"/>
        <path id="Path_8-2" data-name="Path 8" d="M194.844,144.737a5.174,5.174,0,0,0-5.171,5.171,4.865,4.865,0,0,0,.808,2.747l-5.656,6.464V179.8h2.909V160.089l4.848-5.494a5.413,5.413,0,0,0,2.262.485,5.171,5.171,0,1,0,0-10.342Z" transform="translate(-131.173 -101.913)" fill="#fff"/>
        <path id="Path_9-2" data-name="Path 9" d="M101.7,149.909a5.171,5.171,0,1,0-5.171,5.171,5.491,5.491,0,0,0,2.262-.485l4.848,5.494V179.8h2.909V159.12l-5.656-6.464A4.9,4.9,0,0,0,101.7,149.909Z" transform="translate(-84.244 -101.913)" fill="#fff"/>
      </g>
    </g>
  </g>
</svg>
