<svg id="Group_389" data-name="Group 389" xmlns="http://www.w3.org/2000/svg" xmlns:xlink="http://www.w3.org/1999/xlink" width="515.216" height="513.01" viewBox="0 0 515.216 513.01">
  <defs>
    <clipPath id="clip-path">
      <rect id="Rectangle_186" data-name="Rectangle 186" width="515.216" height="513.01" fill="none"/>
    </clipPath>
    <clipPath id="clip-path-3">
      <path id="Path_568" data-name="Path 568" d="M129.7,336.08c-19.661-11.352-30.491-25.721-30.491-40.46s10.828-29.11,30.491-40.462c21.746-12.555,50.917-19.471,82.139-19.471s60.394,6.915,82.139,19.471c19.663,11.352,30.49,25.722,30.49,40.462s-10.829,29.108-30.49,40.46c-21.748,12.555-50.92,19.469-82.139,19.469s-60.393-6.914-82.139-19.469m-6.03-91.365c-24.346,14.056-36.519,32.481-36.52,50.9h0v33.938c0,18.422,12.174,36.847,36.519,50.9,48.695,28.113,127.643,28.113,176.338,0,24.347-14.056,36.521-32.481,36.522-50.9V295.618c0-18.422-12.175-36.847-36.522-50.9s-56.257-21.085-88.168-21.085-63.821,7.028-88.169,21.085" transform="translate(-87.148 -223.63)" fill="none"/>
    </clipPath>
    <linearGradient id="linear-gradient" x1="-0.03" y1="1.418" x2="1" y2="1.43" gradientUnits="objectBoundingBox">
      <stop offset="0" stop-color="#a5e7d7"/>
      <stop offset="0.11" stop-color="#a3e3d9"/>
      <stop offset="0.228" stop-color="#9dd6dc"/>
      <stop offset="0.35" stop-color="#93c1e1"/>
      <stop offset="0.474" stop-color="#87a4e9"/>
      <stop offset="0.576" stop-color="#7b87f1"/>
      <stop offset="0.677" stop-color="#8287f1"/>
      <stop offset="0.85" stop-color="#9984f2"/>
      <stop offset="1" stop-color="#b183f2"/>
    </linearGradient>
    <clipPath id="clip-path-5">
      <rect id="Rectangle_145" data-name="Rectangle 145" width="249.378" height="143.979" fill="none"/>
    </clipPath>
    <clipPath id="clip-path-6">
      <rect id="Rectangle_146" data-name="Rectangle 146" width="225.277" height="76.91" fill="none"/>
    </clipPath>
    <clipPath id="clip-path-7">
      <rect id="Rectangle_147" data-name="Rectangle 147" width="223.254" height="104.497" fill="none"/>
    </clipPath>
    <clipPath id="clip-path-8">
      <rect id="Rectangle_148" data-name="Rectangle 148" width="10.745" height="17.729" fill="none"/>
    </clipPath>
    <clipPath id="clip-path-9">
      <rect id="Rectangle_149" data-name="Rectangle 149" width="5.249" height="5.732" fill="none"/>
    </clipPath>
    <clipPath id="clip-path-10">
      <path id="Path_597" data-name="Path 597" d="M368.324,316.132l-1.772,5.813a1.841,1.841,0,0,1-.579.893l-3.964,3.056c-.63.486-.881,1.663-.425,1.992l2.867,2.072a.821.821,0,0,1,.221.778L364,336.39c-.049.413.062.69.253.8.224.128,2.655,1.536,2.847,1.645.223.128.555.025.86-.365l3.545-4.531a.868.868,0,0,1,.714-.413l3.545.438c.563.069,1.221-.949,1.114-1.722l-.677-4.873a1.793,1.793,0,0,1,.221-1.033l2.868-5.384c.345-.646.284-1.309-.037-1.492-.1-.058-2.524-1.453-2.839-1.64a.441.441,0,0,0-.4-.012l-2.607,1-.861-1.827a.472.472,0,0,0-.192-.22c-.36-.2-2.768-1.6-2.843-1.643a.377.377,0,0,0-.191-.049c-.352,0-.8.422-1,1.062" transform="translate(-361.352 -315.07)" fill="none"/>
    </clipPath>
    <linearGradient id="linear-gradient-2" x1="-21.768" y1="6.765" x2="-21.708" y2="6.765" xlink:href="#linear-gradient"/>
    <clipPath id="clip-path-12">
      <rect id="Rectangle_152" data-name="Rectangle 152" width="5.845" height="3.245" fill="none"/>
    </clipPath>
    <clipPath id="clip-path-13">
      <path id="Path_599" data-name="Path 599" d="M386.172,305.841l-1.772,5.813a1.836,1.836,0,0,1-.579.893l-3.963,3.057c-.63.485-.881,1.662-.425,1.991l2.867,2.072a.826.826,0,0,1,.221.778l-.677,5.655c-.049.413.062.689.253.8.224.128,2.655,1.536,2.846,1.645.224.128.556.026.861-.365l3.545-4.531a.868.868,0,0,1,.714-.413l3.545.438c.563.069,1.221-.948,1.114-1.722l-.677-4.873a1.793,1.793,0,0,1,.221-1.033l2.868-5.383c.343-.647.284-1.311-.037-1.493-.1-.058-2.524-1.453-2.839-1.641a.441.441,0,0,0-.4-.012l-2.607,1-.861-1.827a.468.468,0,0,0-.193-.22c-.359-.2-2.767-1.6-2.842-1.643a.377.377,0,0,0-.191-.049c-.352,0-.8.423-1,1.062" transform="translate(-379.2 -304.779)" fill="none"/>
    </clipPath>
    <linearGradient id="linear-gradient-3" x1="-22.845" y1="7.245" x2="-22.785" y2="7.245" xlink:href="#linear-gradient"/>
    <clipPath id="clip-path-15">
      <rect id="Rectangle_155" data-name="Rectangle 155" width="15.321" height="22.173" fill="none"/>
    </clipPath>
    <clipPath id="clip-path-18">
      <rect id="Rectangle_158" data-name="Rectangle 158" width="15.321" height="22.172" fill="none"/>
    </clipPath>
    <clipPath id="clip-path-19">
      <rect id="Rectangle_159" data-name="Rectangle 159" width="15.322" height="22.172" fill="none"/>
    </clipPath>
    <clipPath id="clip-path-21">
      <path id="Path_606" data-name="Path 606" d="M404.02,295.55l-1.773,5.813a1.822,1.822,0,0,1-.578.893l-3.964,3.057c-.63.486-.881,1.662-.426,1.991l2.868,2.072a.824.824,0,0,1,.221.778l-.677,5.655c-.049.413.062.689.253.8l2.846,1.645c.224.129.557.025.861-.364l3.544-4.532a.874.874,0,0,1,.715-.413l3.545.438c.563.07,1.221-.948,1.114-1.722l-.678-4.872a1.815,1.815,0,0,1,.221-1.034l2.869-5.383c.344-.647.284-1.31-.038-1.492-.1-.058-2.523-1.453-2.838-1.642a.442.442,0,0,0-.395-.011l-2.61,1-.86-1.827a.462.462,0,0,0-.193-.22c-.359-.2-2.767-1.6-2.842-1.645a.387.387,0,0,0-.191-.048c-.352,0-.8.422-1,1.062" transform="translate(-397.048 -294.488)" fill="none"/>
    </clipPath>
    <linearGradient id="linear-gradient-4" x1="-23.921" y1="7.725" x2="-23.861" y2="7.725" xlink:href="#linear-gradient"/>
    <clipPath id="clip-path-24">
      <path id="Path_608" data-name="Path 608" d="M421.868,285.259l-1.773,5.813a1.83,1.83,0,0,1-.578.894l-3.964,3.056c-.63.486-.881,1.663-.426,1.992L418,299.084a.827.827,0,0,1,.221.78l-.677,5.654c-.049.413.062.69.253.8.223.128,2.655,1.537,2.846,1.645.224.128.557.026.861-.364l3.544-4.532a.871.871,0,0,1,.715-.412l3.545.437c.563.07,1.221-.947,1.114-1.721l-.678-4.874a1.808,1.808,0,0,1,.221-1.034l2.869-5.383c.344-.646.284-1.31-.038-1.492-.1-.059-2.523-1.453-2.838-1.641a.441.441,0,0,0-.4-.012l-2.608,1-.86-1.827a.476.476,0,0,0-.193-.221c-.359-.2-2.767-1.6-2.843-1.643a.383.383,0,0,0-.19-.048c-.352,0-.8.42-1,1.061" transform="translate(-414.896 -284.198)" fill="none"/>
    </clipPath>
    <linearGradient id="linear-gradient-5" x1="-24.997" y1="8.206" x2="-24.936" y2="8.206" xlink:href="#linear-gradient"/>
    <clipPath id="clip-path-30">
      <rect id="Rectangle_170" data-name="Rectangle 170" width="2.846" height="1.647" fill="none"/>
    </clipPath>
    <clipPath id="clip-path-31">
      <path id="Path_613" data-name="Path 613" d="M439.716,274.968l-1.773,5.813a1.824,1.824,0,0,1-.578.893l-3.963,3.058c-.63.484-.881,1.662-.426,1.991l2.867,2.072a.82.82,0,0,1,.221.777l-.676,5.655c-.049.413.062.69.253.8l2.846,1.645c.224.129.556.026.86-.362l3.545-4.533a.876.876,0,0,1,.715-.413l3.545.439c.563.069,1.221-.949,1.114-1.723l-.678-4.871a1.793,1.793,0,0,1,.221-1.034l2.869-5.384c.344-.647.284-1.31-.037-1.491-.1-.059-2.524-1.454-2.839-1.642a.437.437,0,0,0-.4-.013l-2.608,1-.86-1.827a.474.474,0,0,0-.193-.22c-.359-.2-2.767-1.6-2.843-1.644a.383.383,0,0,0-.19-.048c-.352,0-.8.422-1,1.061" transform="translate(-432.744 -273.907)" fill="none"/>
    </clipPath>
    <linearGradient id="linear-gradient-6" x1="-26.073" y1="8.686" x2="-26.012" y2="8.686" xlink:href="#linear-gradient"/>
    <clipPath id="clip-path-34">
      <rect id="Rectangle_174" data-name="Rectangle 174" width="5.846" height="3.245" fill="none"/>
    </clipPath>
    <clipPath id="clip-path-35">
      <rect id="Rectangle_175" data-name="Rectangle 175" width="32.726" height="43.028" fill="none"/>
    </clipPath>
    <clipPath id="clip-path-36">
      <path id="Path_630" data-name="Path 630" d="M249.876,1.077,56.409,112.765a8.874,8.874,0,0,0-3.056,3.168l.022.011a9.108,9.108,0,0,0-1.416,4.515V254.744a9.671,9.671,0,0,0,4.472,7.628L72.323,271.3c1.942,1.193,5.453,1.3,7.885.411-2.052.613-3.413-.8-3.413-3.032V134.422a8.9,8.9,0,0,1,1.316-4.371,9.113,9.113,0,0,1,3.134-3.324L274.69,15.04c2.219-1.271,4.048-.48,4.394,1.761a9.829,9.829,0,0,0-4.4-6.847l-15.9-8.922a9.927,9.927,0,0,0-8.9.046" transform="translate(-51.959 -0.001)" fill="none"/>
    </clipPath>
    <linearGradient id="linear-gradient-7" x1="-0.257" y1="1.876" y2="1.872" xlink:href="#linear-gradient"/>
    <clipPath id="clip-path-38">
      <rect id="Rectangle_178" data-name="Rectangle 178" width="10.84" height="96.21" fill="none"/>
    </clipPath>
    <clipPath id="clip-path-39">
      <rect id="Rectangle_179" data-name="Rectangle 179" width="10.328" height="16.751" fill="none"/>
    </clipPath>
    <clipPath id="clip-path-40">
      <rect id="Rectangle_180" data-name="Rectangle 180" width="10.94" height="34.059" fill="none"/>
    </clipPath>
    <clipPath id="clip-path-41">
      <rect id="Rectangle_181" data-name="Rectangle 181" width="30.374" height="110.766" fill="none"/>
    </clipPath>
    <clipPath id="clip-path-42">
      <rect id="Rectangle_182" data-name="Rectangle 182" width="18.368" height="73.626" fill="none"/>
    </clipPath>
    <clipPath id="clip-path-43">
      <rect id="Rectangle_183" data-name="Rectangle 183" width="30.903" height="64.725" fill="none"/>
    </clipPath>
    <clipPath id="clip-path-44">
      <rect id="Rectangle_184" data-name="Rectangle 184" width="10.74" height="9.714" fill="none"/>
    </clipPath>
  </defs>
  <g id="Group_388" data-name="Group 388" clip-path="url(#clip-path)">
    <g id="Group_275" data-name="Group 275">
      <g id="Group_274" data-name="Group 274" clip-path="url(#clip-path)">
        <path id="Path_564" data-name="Path 564" d="M75.453,447.179c-100.6-58.081-100.6-152.251,0-210.334s263.71-58.081,364.313,0,100.6,152.252,0,210.334-263.709,58.081-364.313,0" transform="translate(0 22.269)" fill="#fafafa"/>
        <path id="Path_565" data-name="Path 565" d="M112.466,272.242c54.561-31.5,143.02-31.5,197.579,0,46.248,26.7,53.275,67.463,21.117,98.449l120.053,68.434c7.318,4.224,7.318,11.074,0,15.3l-10.789,6.229c-7.317,4.224-18.98,3.9-26.049-.728L309.513,386.6c-54.6,31.2-142.658,31.108-197.045-.292-54.56-31.5-54.561-82.57,0-114.071" transform="translate(8.243 28.644)" fill="#e7e7e7"/>
        <path id="Path_566" data-name="Path 566" d="M133.807,22.024l-9.466,5.466a11.71,11.71,0,0,0,.079-1.254V23.494c0-4.88-3.426-6.859-7.653-4.418a14.8,14.8,0,0,0-4.561,4.386c-.693-6.137-5.507-8.422-11.355-5.046C94.528,22.067,89.4,30.945,89.4,38.246v4.1a10.814,10.814,0,0,0,.969,4.753l-7.863,4.539a9.384,9.384,0,0,0-4.245,7.353c0,2.708,1.9,3.8,4.245,2.451l51.3-29.617a9.384,9.384,0,0,0,4.245-7.353c0-2.708-1.9-3.805-4.245-2.451" transform="translate(9.017 1.942)" fill="#ececec"/>
        <path id="Path_567" data-name="Path 567" d="M16.927,47.954l5.336-4.11V32.089c0-9.319,7.433-20.136,15.5-24.8S52.38,6.411,52.38,15.73v1.707a20.852,20.852,0,0,1,6.782-6.785c5.808-3.353,10.515-.635,10.515,6.071V17.5L77.118,13.2c3.824-2.208,6.924-.418,6.924,4a15.309,15.309,0,0,1-6.924,12l-60.19,34.75c-3.824,2.208-6.924.418-6.924-4a15.308,15.308,0,0,1,6.924-11.994" transform="translate(1.152 0.61)" fill="#ececec"/>
      </g>
    </g>
    <g id="Group_277" data-name="Group 277" transform="translate(97.189 249.395)">
      <g id="Group_276" data-name="Group 276" clip-path="url(#clip-path-3)">
        <rect id="Rectangle_144" data-name="Rectangle 144" width="249.379" height="184.943" transform="translate(0 0)" fill="url(#linear-gradient)"/>
      </g>
    </g>
    <g id="Group_294" data-name="Group 294">
      <g id="Group_293" data-name="Group 293" clip-path="url(#clip-path)">
        <path id="Path_569" data-name="Path 569" d="M300.012,244.715c-48.694-28.113-127.642-28.113-176.337,0s-48.694,73.7,0,101.809,127.644,28.112,176.338,0,48.692-73.694,0-101.809m-6.029,91.365c-21.746,12.555-50.917,19.471-82.14,19.471s-60.391-6.915-82.139-19.471c-19.661-11.352-30.49-25.721-30.49-40.46s10.826-29.11,30.49-40.462c21.746-12.555,50.917-19.469,82.139-19.469s60.394,6.914,82.14,19.469c19.663,11.352,30.49,25.722,30.49,40.462s-10.829,29.108-30.49,40.46" transform="translate(10.041 25.765)" fill="#c36fc7"/>
        <g id="Group_280" data-name="Group 280" transform="translate(97.196 249.395)" opacity="0.5">
          <g id="Group_279" data-name="Group 279">
            <g id="Group_278" data-name="Group 278" clip-path="url(#clip-path-5)">
              <path id="Path_570" data-name="Path 570" d="M300.012,244.715c-48.694-28.113-127.642-28.113-176.337,0s-48.694,73.7,0,101.809,127.644,28.112,176.338,0,48.692-73.694,0-101.809m-6.029,91.365c-21.746,12.555-50.917,19.471-82.14,19.471s-60.391-6.915-82.139-19.471c-19.661-11.352-30.49-25.721-30.49-40.46s10.826-29.11,30.49-40.462c21.746-12.555,50.917-19.469,82.139-19.469s60.394,6.914,82.14,19.469c19.663,11.352,30.49,25.722,30.49,40.462s-10.829,29.108-30.49,40.46" transform="translate(-87.155 -223.63)" fill="#7986f8"/>
            </g>
          </g>
        </g>
        <path id="Path_571" data-name="Path 571" d="M323.238,294.372a33.451,33.451,0,0,1-4.871,16.978c-4.944-8.561-13.65-16.592-25.637-23.49-21.73-12.565-50.912-19.486-82.143-19.486-31.207,0-60.389,6.921-82.119,19.486-11.985,6.9-20.692,14.928-25.66,23.49a33.651,33.651,0,0,1-4.848-16.978c0-14.735,10.829-29.109,30.508-40.469,21.73-12.541,50.912-19.462,82.119-19.462,31.232,0,60.413,6.921,82.143,19.462,19.678,11.36,30.508,25.734,30.508,40.469" transform="translate(11.286 27.011)" fill="#c36fc7"/>
        <g id="Group_283" data-name="Group 283" transform="translate(109.247 261.451)" opacity="0.5">
          <g id="Group_282" data-name="Group 282">
            <g id="Group_281" data-name="Group 281" clip-path="url(#clip-path-6)">
              <path id="Path_572" data-name="Path 572" d="M323.238,294.372a33.451,33.451,0,0,1-4.871,16.978c-4.944-8.561-13.65-16.592-25.637-23.49-21.73-12.565-50.912-19.486-82.143-19.486-31.207,0-60.389,6.921-82.119,19.486-11.985,6.9-20.692,14.928-25.66,23.49a33.651,33.651,0,0,1-4.848-16.978c0-14.735,10.829-29.109,30.508-40.469,21.73-12.541,50.912-19.462,82.119-19.462,31.232,0,60.413,6.921,82.143,19.462,19.678,11.36,30.508,25.734,30.508,40.469" transform="translate(-97.96 -234.44)" fill="#a0adf9"/>
            </g>
          </g>
        </g>
        <g id="Group_286" data-name="Group 286" transform="translate(110.259 276.819)" opacity="0.4">
          <g id="Group_285" data-name="Group 285">
            <g id="Group_284" data-name="Group 284" clip-path="url(#clip-path-7)">
              <path id="Path_573" data-name="Path 573" d="M292.633,267.69c-21.746-12.555-50.917-19.47-82.14-19.47s-60.393,6.915-82.139,19.47c-16.225,9.367-26.413,20.79-29.487,32.778,3.075,11.989,13.264,23.411,29.487,32.778,21.748,12.555,50.92,19.469,82.139,19.469s60.394-6.914,82.14-19.469c16.223-9.368,26.413-20.79,29.489-32.778-3.076-11.989-13.263-23.412-29.489-32.778" transform="translate(-98.868 -248.22)" fill="#fff"/>
            </g>
          </g>
        </g>
        <path id="Path_574" data-name="Path 574" d="M117.834,303.421c6.969,5.462,14.877,8.9,22.94,11.664a164.169,164.169,0,0,0,24.767,6.111,244.875,244.875,0,0,0,50.813,2.9c8.487-.369,16.987-1.164,25.429-2.309a208.045,208.045,0,0,0,24.965-4.915,107.8,107.8,0,0,0,23.563-8.948,54.694,54.694,0,0,0,5.351-3.272,41.289,41.289,0,0,0,4.9-3.907,27.574,27.574,0,0,0,4.115-4.764,20.1,20.1,0,0,0,2.778-5.825,18.727,18.727,0,0,1-1.14,6.643,28.916,28.916,0,0,1-3.181,6.109,36.272,36.272,0,0,1-4.378,5.355,51.77,51.77,0,0,1-5.122,4.624,91.325,91.325,0,0,1-23.9,13.123,153,153,0,0,1-26.057,7.261,195.606,195.606,0,0,1-26.76,3.171,170.784,170.784,0,0,1-53.535-5.7,119.462,119.462,0,0,1-25.1-10.053,76.672,76.672,0,0,1-11.264-7.51c-.883-.7-1.713-1.475-2.564-2.2-.813-.785-1.649-1.528-2.419-2.35a40.781,40.781,0,0,1-4.2-5.206" transform="translate(13.576 33.43)" fill="#fff"/>
        <path id="Path_575" data-name="Path 575" d="M274.691,354.891c-.022-5.572,3.861-12.362,8.674-15.168,2.394-1.4,4.566-1.538,6.149-.647v0l.022.012,0,0,27.782,15.888.029.017.009.006h0c1.571.912,2.549,2.856,2.562,5.628.022,5.572-3.861,12.362-8.675,15.167-2.408,1.4-4.591,1.543-6.176.637L277.3,360.548l0,0c-1.6-.9-2.6-2.856-2.606-5.654" transform="translate(31.648 39.002)" fill="#31454d"/>
        <path id="Path_576" data-name="Path 576" d="M277.3,359.529c-1.6-.9-2.6-2.856-2.606-5.654a16.575,16.575,0,0,1,1.481-6.54l39.936,22.889a16.576,16.576,0,0,1-4.86,4.555c-2.408,1.4-4.591,1.545-6.176.637l-27.778-15.883Z" transform="translate(31.648 40.018)" fill="#1f2e35"/>
        <path id="Path_577" data-name="Path 577" d="M408.888,398.533h0l-.009,0-.036-.019L320.45,353.47l-.008,0-.117-.062-.01.016c-2.051-1.106-4.833-.914-7.9.875-6.264,3.651-11.319,12.489-11.289,19.74.016,3.634,1.306,6.179,3.377,7.356L387.617,434.9a21.077,21.077,0,1,0,21.27-36.369" transform="translate(34.693 40.64)" fill="#3f5963"/>
        <path id="Path_578" data-name="Path 578" d="M304.5,379.772l83.119,53.511a21.057,21.057,0,0,0,32.209-16.5c-1.593,6.919-13.034,12.808-27.225,4.878-14.269-7.974-66.728-41.128-90.61-54.88a19.639,19.639,0,0,0-.871,5.63c.016,3.634,1.306,6.179,3.378,7.356" transform="translate(34.693 42.259)" fill="#31454d"/>
        <path id="Path_579" data-name="Path 579" d="M304.5,381.391c-2.071-1.177-3.362-3.721-3.377-7.356-.03-7.251,5.024-16.088,11.289-19.739,3.07-1.791,5.853-1.982,7.9-.877l7.832,3.971c-2.1-1.133-4.958-.938-8.108.9-6.425,3.745-11.608,12.808-11.578,20.245.016,3.727,1.281,6.395,3.406,7.6" transform="translate(34.693 40.64)" fill="#c36fc7"/>
        <g id="Group_289" data-name="Group 289" transform="translate(335.814 409.045)" opacity="0.2">
          <g id="Group_288" data-name="Group 288">
            <g id="Group_287" data-name="Group 287" clip-path="url(#clip-path-8)">
              <path id="Path_580" data-name="Path 580" d="M311.866,384.515c-2.123-1.208-3.389-3.874-3.4-7.6a20.106,20.106,0,0,1,.906-5.81c-2.671-1.584-5.148-3.036-7.376-4.319a22.065,22.065,0,0,0-.651,2.851q-.11.708-.166,1.4t-.052,1.376c.014,3.634,1.306,6.178,3.377,7.356Z" transform="translate(-301.121 -366.786)"/>
            </g>
          </g>
        </g>
        <path id="Path_581" data-name="Path 581" d="M124.186,428.207,57.281,394.744l-26.654,11.79Z" transform="translate(3.529 45.48)" fill="#7b87f1"/>
        <path id="Path_582" data-name="Path 582" d="M120.609,430.388l-58.94-39.4,10.557-15.171Z" transform="translate(7.105 43.299)" fill="#7b87f1"/>
        <path id="Path_583" data-name="Path 583" d="M61.669,389.42,62.782,399.9l57.827,28.923Z" transform="translate(7.105 44.867)" fill="#4c5cc1"/>
        <path id="Path_584" data-name="Path 584" d="M53.32,387.942a.627.627,0,0,0,.435-.18.792.792,0,0,0,.066-1.037q-.652-.831-1.289-1.668a.615.615,0,0,0-.932-.087A.79.79,0,0,0,51.52,386q.642.846,1.3,1.685a.634.634,0,0,0,.5.252" transform="translate(5.918 44.334)" fill="#3f5963"/>
        <path id="Path_585" data-name="Path 585" d="M49.758,393.738q-1.188-1.745-2.31-3.516a.79.79,0,0,1,.162-1.025.626.626,0,0,1,.925.178q1.107,1.751,2.282,3.477a.789.789,0,0,1-.13,1.029.619.619,0,0,1-.4.147.64.64,0,0,1-.529-.291m-5.9-9.58q-1.029-1.865-1.983-3.759a.777.777,0,0,1,.255-1,.627.627,0,0,1,.9.283q.94,1.867,1.958,3.707a.785.785,0,0,1-.219,1.011.618.618,0,0,1-.347.107.652.652,0,0,1-.567-.35M38.882,373.94c-.558-1.32-1.092-2.661-1.587-3.987a.767.767,0,0,1,.358-.961.642.642,0,0,1,.867.4c.487,1.3,1.014,2.626,1.562,3.927a.77.77,0,0,1-.319.977.6.6,0,0,1-.281.071.663.663,0,0,1-.6-.425m-3.856-10.8c-.408-1.4-.785-2.8-1.12-4.18a.746.746,0,0,1,.467-.9.656.656,0,0,1,.812.517c.33,1.356.7,2.739,1.1,4.11a.754.754,0,0,1-.426.926.6.6,0,0,1-.2.037.675.675,0,0,1-.631-.509m-2.563-11.267c-.232-1.42-.434-2.871-.6-4.31a.722.722,0,0,1,.573-.822.687.687,0,0,1,.741.636c.163,1.414.361,2.839.59,4.233a.735.735,0,0,1-.534.855.621.621,0,0,1-.119.012.688.688,0,0,1-.651-.6m-1.146-11.553q-.06-1.7-.061-3.423l0-.939a.7.7,0,0,1,.662-.725h.009a.7.7,0,0,1,.654.744l-.006.919q0,1.69.062,3.365a.708.708,0,0,1-.636.764h-.027a.7.7,0,0,1-.662-.7m.888-10.815a.72.72,0,0,1-.6-.8c.124-1.437.28-2.894.467-4.33a.674.674,0,0,1,.749-.622.725.725,0,0,1,.562.831c-.183,1.414-.338,2.848-.459,4.259a.693.693,0,0,1-.658.666.6.6,0,0,1-.064,0m1.561-11.393a.739.739,0,0,1-.5-.881c.292-1.412.627-2.833.993-4.224a.657.657,0,0,1,.823-.5.754.754,0,0,1,.451.913c-.359,1.364-.687,2.758-.975,4.141a.683.683,0,0,1-.646.572.624.624,0,0,1-.148-.02m3.007-11.024a.764.764,0,0,1-.368-.956c.485-1.34,1.015-2.687,1.574-4a.64.64,0,0,1,.882-.352.772.772,0,0,1,.318.978c-.548,1.288-1.068,2.608-1.543,3.922a.667.667,0,0,1-.614.462.608.608,0,0,1-.248-.054M41.3,296.722a.781.781,0,0,1-.228-1.008c.672-1.247,1.386-2.482,2.121-3.679a.625.625,0,0,1,.921-.193.788.788,0,0,1,.175,1.023c-.722,1.171-1.422,2.384-2.081,3.6a.652.652,0,0,1-.569.357.6.6,0,0,1-.34-.1m5.93-9.46a.793.793,0,0,1-.085-1.036c.841-1.121,1.719-2.222,2.605-3.273a.618.618,0,0,1,.937-.036.793.793,0,0,1,.032,1.039c-.871,1.032-1.731,2.111-2.555,3.211a.641.641,0,0,1-.51.264.627.627,0,0,1-.425-.169m7.163-8.351a.792.792,0,0,1,.056-1.037c.981-.966,2-1.91,3.016-2.806a.62.62,0,0,1,.932.12.792.792,0,0,1-.108,1.033c-1,.879-2,1.806-2.961,2.752a.624.624,0,0,1-.439.185.632.632,0,0,1-.5-.248m8.216-7.057a.783.783,0,0,1,.2-1.015c1.125-.8,2.267-1.549,3.394-2.234a.636.636,0,0,1,.9.293.779.779,0,0,1-.264,1c-1.1.667-2.215,1.4-3.314,2.18a.61.61,0,0,1-.358.115.648.648,0,0,1-.558-.338" transform="translate(3.601 30.937)" fill="#3f5963"/>
        <path id="Path_586" data-name="Path 586" d="M68.281,267.4a.581.581,0,0,0,.2-.037,10.768,10.768,0,0,1,1.818-.5.727.727,0,0,0,.562-.832.677.677,0,0,0-.751-.623,11.751,11.751,0,0,0-2.033.555.75.75,0,0,0-.428.923.672.672,0,0,0,.63.512" transform="translate(7.791 30.577)" fill="#3f5963"/>
        <path id="Path_587" data-name="Path 587" d="M356.1,39.311,287.511,18.29l52.839,36.3Z" transform="translate(33.125 2.107)" fill="#b183f2"/>
        <path id="Path_588" data-name="Path 588" d="M287.511,18.641,361.33,30.515l15.747-15.274Z" transform="translate(33.125 1.756)" fill="#b183f2"/>
        <path id="Path_589" data-name="Path 589" d="M361.33,30.163l.072,18.254L356.1,39.312,287.511,18.29Z" transform="translate(33.125 2.107)" fill="#9066d3"/>
        <path id="Path_590" data-name="Path 590" d="M354.86,46.245l-10.554-4.014,5.248-5.092Z" transform="translate(39.669 4.279)" fill="#b183f2"/>
        <g id="Group_292" data-name="Group 292" transform="translate(383.974 41.418)" opacity="0.2">
          <g id="Group_291" data-name="Group 291">
            <g id="Group_290" data-name="Group 290" clip-path="url(#clip-path-9)">
              <path id="Path_591" data-name="Path 591" d="M349.554,37.139,344.3,42.23l1.684.641Z" transform="translate(-344.305 -37.139)"/>
            </g>
          </g>
        </g>
        <path id="Path_592" data-name="Path 592" d="M366.2,34.273a.631.631,0,0,0-.238.406.794.794,0,0,0,.577.865c.681.177,1.358.359,2.035.545a.615.615,0,0,0,.8-.5.789.789,0,0,0-.564-.871c-.681-.19-1.367-.372-2.054-.553a.63.63,0,0,0-.551.1" transform="translate(42.163 3.934)" fill="#3f5963"/>
        <path id="Path_593" data-name="Path 593" d="M374.587,36.492q2,.669,3.968,1.4a.79.79,0,0,1,.492.913.626.626,0,0,1-.843.417q-1.942-.721-3.921-1.383a.788.788,0,0,1-.521-.9.616.616,0,0,1,.227-.359.64.64,0,0,1,.6-.089m10.5,4.045q1.949.86,3.854,1.789a.777.777,0,0,1,.4.95.627.627,0,0,1-.889.32q-1.879-.915-3.8-1.762a.787.787,0,0,1-.439-.938.616.616,0,0,1,.211-.3.653.653,0,0,1,.664-.064m10.147,5.114c1.245.713,2.481,1.455,3.679,2.209a.768.768,0,0,1,.3.983.642.642,0,0,1-.93.209c-1.179-.744-2.4-1.475-3.623-2.178a.771.771,0,0,1-.338-.97.6.6,0,0,1,.181-.226.661.661,0,0,1,.735-.026m9.611,6.254c1.17.861,2.322,1.751,3.424,2.646a.746.746,0,0,1,.175,1,.655.655,0,0,1-.959.08c-1.085-.879-2.217-1.754-3.367-2.6a.754.754,0,0,1-.223-.995.636.636,0,0,1,.141-.153.674.674,0,0,1,.81.023m8.866,7.409c1.045.989,2.085,2.021,3.089,3.066a.722.722,0,0,1,.042,1,.688.688,0,0,1-.976-.057c-.986-1.026-2.007-2.04-3.035-3.01a.734.734,0,0,1-.093-1,.6.6,0,0,1,.087-.081.687.687,0,0,1,.884.086m7.912,8.5q1.081,1.318,2.123,2.685l.565.749a.7.7,0,0,1-.088.978l-.007,0a.7.7,0,0,1-.971-.2l-.552-.734q-1.025-1.343-2.089-2.64a.708.708,0,0,1,.042-.993l.021-.016a.7.7,0,0,1,.955.159m5.848,9.141a.718.718,0,0,1,.96.274c.773,1.218,1.53,2.471,2.253,3.727a.676.676,0,0,1-.22.95.725.725,0,0,1-.95-.321c-.711-1.236-1.458-2.47-2.216-3.666a.7.7,0,0,1,.12-.929.546.546,0,0,1,.052-.036m5.661,10.009a.74.74,0,0,1,.93.4c.622,1.3,1.218,2.633,1.77,3.961a.657.657,0,0,1-.351.9.752.752,0,0,1-.912-.452c-.54-1.3-1.124-2.612-1.734-3.885a.684.684,0,0,1,.168-.846.564.564,0,0,1,.129-.074m4.288,10.591a.763.763,0,0,1,.872.536c.426,1.361.821,2.753,1.172,4.136a.641.641,0,0,1-.487.815.773.773,0,0,1-.846-.585c-.345-1.357-.73-2.722-1.149-4.055a.667.667,0,0,1,.21-.741.6.6,0,0,1,.229-.107m2.683,10.99a.782.782,0,0,1,.792.664c.22,1.4.4,2.816.541,4.212a.625.625,0,0,1-.616.712.788.788,0,0,1-.758-.707c-.136-1.369-.313-2.758-.529-4.129a.65.65,0,0,1,.235-.628.605.605,0,0,1,.335-.124" transform="translate(43.061 4.2)" fill="#3f5963"/>
        <path id="Path_594" data-name="Path 594" d="M455.894,260.938c-2.985-1.784-7.2-1.539-11.884,1.164l-84.943,49.042c-9.068,5.236-16.419,17.676-16.419,27.788,0,4.939,1.754,8.408,4.607,10.053,1.55.894,7.558,4.36,9.117,5.252,2.978,1.7,7.14,1.424,11.753-1.24l84.945-49.043c9.068-5.235,16.419-17.676,16.419-27.787,0-4.917-1.74-8.375-4.569-10.029-1.558-.911-7.528-4.3-9.027-5.2" transform="translate(39.478 29.932)" fill="#e1e1e1"/>
        <path id="Path_595" data-name="Path 595" d="M359.594,354.153c-5.133,0-8.322-4.056-8.322-10.585,0-9.916,7.24-22.166,16.14-27.3l84.944-49.042a14.919,14.919,0,0,1,7.26-2.238c5.133,0,8.322,4.056,8.322,10.584,0,9.918-7.24,22.166-16.139,27.3l-84.945,49.043a14.919,14.919,0,0,1-7.26,2.238" transform="translate(40.472 30.53)" fill="#fafafa"/>
        <path id="Path_596" data-name="Path 596" d="M459.673,265.6h0c4.79,0,7.764,3.842,7.764,10.026,0,9.74-7.115,21.772-15.861,26.822L366.633,351.49a14.377,14.377,0,0,1-6.981,2.164,6.931,6.931,0,0,1-5.556-2.508,11.739,11.739,0,0,1-2.208-7.519c0-9.74,7.115-21.772,15.862-26.822l84.943-49.042a14.373,14.373,0,0,1,6.981-2.164m0-1.115a15.334,15.334,0,0,0-7.539,2.313l-84.943,49.042c-9.068,5.235-16.419,17.676-16.419,27.788,0,7.082,3.6,11.142,8.879,11.142a15.334,15.334,0,0,0,7.539-2.313l84.944-49.043c9.068-5.236,16.418-17.676,16.418-27.788,0-7.081-3.6-11.141-8.879-11.141" transform="translate(40.414 30.472)" fill="#ececec"/>
      </g>
    </g>
    <g id="Group_296" data-name="Group 296" transform="translate(402.985 351.371)">
      <g id="Group_295" data-name="Group 295" clip-path="url(#clip-path-10)">
        <rect id="Rectangle_151" data-name="Rectangle 151" width="18.503" height="23.893" transform="translate(-0.223)" fill="url(#linear-gradient-2)"/>
      </g>
    </g>
    <g id="Group_301" data-name="Group 301">
      <g id="Group_300" data-name="Group 300" clip-path="url(#clip-path)">
        <g id="Group_299" data-name="Group 299" transform="translate(415.042 354.067)" opacity="0.15">
          <g id="Group_298" data-name="Group 298">
            <g id="Group_297" data-name="Group 297" clip-path="url(#clip-path-12)">
              <path id="Path_598" data-name="Path 598" d="M378.008,319.18a.471.471,0,0,0-.393-.007l-3.967,1.521a.419.419,0,0,1-.574-.225l-.911-1.94,2.606-1a.429.429,0,0,1,.393.007c.316.19,2.741,1.585,2.846,1.641" transform="translate(-372.163 -317.488)" fill="#fff"/>
            </g>
          </g>
        </g>
      </g>
    </g>
    <g id="Group_303" data-name="Group 303" transform="translate(422.889 339.894)">
      <g id="Group_302" data-name="Group 302" clip-path="url(#clip-path-13)">
        <rect id="Rectangle_154" data-name="Rectangle 154" width="18.501" height="23.893" transform="translate(-0.223)" fill="url(#linear-gradient-3)"/>
      </g>
    </g>
    <g id="Group_323" data-name="Group 323">
      <g id="Group_322" data-name="Group 322" clip-path="url(#clip-path)">
        <g id="Group_306" data-name="Group 306" transform="translate(405.831 353.016)" opacity="0.5">
          <g id="Group_305" data-name="Group 305">
            <g id="Group_304" data-name="Group 304" clip-path="url(#clip-path-15)">
              <path id="Path_600" data-name="Path 600" d="M372.253,316.812l1.772,3.766a.424.424,0,0,0,.579.225l3.964-1.52c.63-.241.881.645.425,1.5l-2.867,5.384a1.776,1.776,0,0,0-.221,1.033l.677,4.873c.107.774-.551,1.791-1.114,1.722l-3.545-.438a.869.869,0,0,0-.714.412l-3.546,4.532c-.563.72-1.221.463-1.113-.436l.677-5.654a.827.827,0,0,0-.221-.778l-2.868-2.072c-.455-.329-.2-1.506.425-1.991l3.965-3.057a1.832,1.832,0,0,0,.578-.893l1.773-5.812c.281-.923,1.094-1.393,1.376-.8" transform="translate(-363.904 -316.545)" fill="#fff"/>
            </g>
          </g>
        </g>
        <g id="Group_309" data-name="Group 309" transform="translate(425.735 341.539)" opacity="0.5">
          <g id="Group_308" data-name="Group 308">
            <g id="Group_307" data-name="Group 307" clip-path="url(#clip-path-15)">
              <path id="Path_601" data-name="Path 601" d="M390.1,306.522l1.772,3.766a.425.425,0,0,0,.579.225l3.963-1.52c.63-.242.881.645.425,1.5l-2.868,5.384a1.783,1.783,0,0,0-.22,1.033l.677,4.872c.107.774-.551,1.792-1.114,1.722l-3.545-.438a.874.874,0,0,0-.714.413l-3.546,4.532c-.563.72-1.221.463-1.113-.436l.677-5.654a.827.827,0,0,0-.221-.778l-2.868-2.072c-.455-.329-.2-1.506.426-1.991l3.963-3.057a1.832,1.832,0,0,0,.578-.893l1.773-5.812c.281-.923,1.094-1.393,1.376-.8" transform="translate(-381.752 -306.254)" fill="#fff"/>
            </g>
          </g>
        </g>
        <g id="Group_312" data-name="Group 312" transform="translate(445.64 330.062)" opacity="0.5">
          <g id="Group_311" data-name="Group 311">
            <g id="Group_310" data-name="Group 310" clip-path="url(#clip-path-15)">
              <path id="Path_602" data-name="Path 602" d="M407.949,296.231,409.721,300a.424.424,0,0,0,.579.225l3.963-1.52c.63-.242.881.645.425,1.5l-2.868,5.384a1.783,1.783,0,0,0-.22,1.033l.677,4.872c.107.774-.551,1.792-1.114,1.722l-3.545-.438a.877.877,0,0,0-.715.413l-3.545,4.532c-.563.72-1.221.463-1.113-.436l.677-5.654a.827.827,0,0,0-.221-.778l-2.868-2.072c-.455-.329-.2-1.505.425-1.991l3.965-3.057a1.832,1.832,0,0,0,.578-.893l1.773-5.812c.281-.923,1.094-1.393,1.376-.8" transform="translate(-399.6 -295.963)" fill="#fff"/>
            </g>
          </g>
        </g>
        <g id="Group_315" data-name="Group 315" transform="translate(465.544 318.587)" opacity="0.5">
          <g id="Group_314" data-name="Group 314">
            <g id="Group_313" data-name="Group 313" clip-path="url(#clip-path-18)">
              <path id="Path_603" data-name="Path 603" d="M425.8,285.94l1.772,3.766a.424.424,0,0,0,.579.225l3.964-1.52c.63-.242.881.645.425,1.5l-2.867,5.384a1.776,1.776,0,0,0-.221,1.033l.677,4.872c.107.775-.551,1.792-1.114,1.723l-3.545-.438a.869.869,0,0,0-.714.412l-3.546,4.532c-.563.72-1.221.463-1.113-.436l.677-5.654a.827.827,0,0,0-.221-.778l-2.868-2.072c-.455-.329-.2-1.506.425-1.991l3.965-3.057a1.831,1.831,0,0,0,.578-.893l1.773-5.812c.281-.923,1.094-1.393,1.376-.8" transform="translate(-417.448 -285.673)" fill="#fff"/>
            </g>
          </g>
        </g>
        <g id="Group_318" data-name="Group 318" transform="translate(485.447 307.11)" opacity="0.5">
          <g id="Group_317" data-name="Group 317">
            <g id="Group_316" data-name="Group 316" clip-path="url(#clip-path-19)">
              <path id="Path_604" data-name="Path 604" d="M443.645,275.649l1.772,3.766a.424.424,0,0,0,.579.225l3.963-1.52c.63-.242.881.645.425,1.5L447.515,285a1.783,1.783,0,0,0-.22,1.033l.677,4.874c.107.774-.551,1.791-1.114,1.722l-3.545-.438a.869.869,0,0,0-.714.411l-3.546,4.532c-.563.72-1.221.463-1.113-.436l.677-5.654a.827.827,0,0,0-.221-.778l-2.868-2.072c-.455-.329-.2-1.505.426-1.991l3.964-3.057a1.832,1.832,0,0,0,.578-.893l1.773-5.812c.281-.923,1.094-1.393,1.376-.8" transform="translate(-435.295 -275.382)" fill="#fff"/>
            </g>
          </g>
        </g>
        <g id="Group_321" data-name="Group 321" transform="translate(434.946 342.591)" opacity="0.15">
          <g id="Group_320" data-name="Group 320">
            <g id="Group_319" data-name="Group 319" clip-path="url(#clip-path-12)">
              <path id="Path_605" data-name="Path 605" d="M395.856,308.889a.471.471,0,0,0-.393-.007L391.5,310.4a.418.418,0,0,1-.574-.224l-.911-1.94,2.607-1a.427.427,0,0,1,.391.007c.316.19,2.741,1.585,2.846,1.64" transform="translate(-390.011 -307.197)" fill="#fff"/>
            </g>
          </g>
        </g>
      </g>
    </g>
    <g id="Group_325" data-name="Group 325" transform="translate(442.793 328.417)">
      <g id="Group_324" data-name="Group 324" clip-path="url(#clip-path-21)">
        <rect id="Rectangle_162" data-name="Rectangle 162" width="18.501" height="23.895" transform="translate(-0.223 0)" fill="url(#linear-gradient-4)"/>
      </g>
    </g>
    <g id="Group_330" data-name="Group 330">
      <g id="Group_329" data-name="Group 329" clip-path="url(#clip-path)">
        <g id="Group_328" data-name="Group 328" transform="translate(454.85 331.115)" opacity="0.15">
          <g id="Group_327" data-name="Group 327">
            <g id="Group_326" data-name="Group 326" clip-path="url(#clip-path-12)">
              <path id="Path_607" data-name="Path 607" d="M413.7,298.6a.471.471,0,0,0-.393-.007l-3.967,1.52a.418.418,0,0,1-.574-.224l-.911-1.942,2.607-.995a.424.424,0,0,1,.391.007c.316.19,2.741,1.585,2.846,1.64" transform="translate(-407.859 -296.907)" fill="#fff"/>
            </g>
          </g>
        </g>
      </g>
    </g>
    <g id="Group_332" data-name="Group 332" transform="translate(462.698 316.942)">
      <g id="Group_331" data-name="Group 331" clip-path="url(#clip-path-24)">
        <rect id="Rectangle_165" data-name="Rectangle 165" width="18.501" height="23.893" transform="translate(-0.223 -0.001)" fill="url(#linear-gradient-5)"/>
      </g>
    </g>
    <g id="Group_349" data-name="Group 349">
      <g id="Group_348" data-name="Group 348" clip-path="url(#clip-path)">
        <g id="Group_335" data-name="Group 335" transform="translate(445.64 330.062)" opacity="0.5">
          <g id="Group_334" data-name="Group 334">
            <g id="Group_333" data-name="Group 333" clip-path="url(#clip-path-15)">
              <path id="Path_609" data-name="Path 609" d="M407.949,296.231,409.721,300a.424.424,0,0,0,.579.225l3.963-1.52c.63-.242.881.645.425,1.5l-2.868,5.384a1.783,1.783,0,0,0-.22,1.033l.677,4.872c.107.774-.551,1.792-1.114,1.722l-3.545-.438a.877.877,0,0,0-.715.413l-3.545,4.532c-.563.72-1.221.463-1.113-.436l.677-5.654a.827.827,0,0,0-.221-.778l-2.868-2.072c-.455-.329-.2-1.505.425-1.991l3.965-3.057a1.832,1.832,0,0,0,.578-.893l1.773-5.812c.281-.923,1.094-1.393,1.376-.8" transform="translate(-399.6 -295.963)" fill="#fff"/>
            </g>
          </g>
        </g>
        <g id="Group_338" data-name="Group 338" transform="translate(465.544 318.587)" opacity="0.5">
          <g id="Group_337" data-name="Group 337">
            <g id="Group_336" data-name="Group 336" clip-path="url(#clip-path-18)">
              <path id="Path_610" data-name="Path 610" d="M425.8,285.94l1.772,3.766a.424.424,0,0,0,.579.225l3.964-1.52c.63-.242.881.645.425,1.5l-2.867,5.384a1.776,1.776,0,0,0-.221,1.033l.677,4.872c.107.775-.551,1.792-1.114,1.723l-3.545-.438a.869.869,0,0,0-.714.412l-3.546,4.532c-.563.72-1.221.463-1.113-.436l.677-5.654a.827.827,0,0,0-.221-.778l-2.868-2.072c-.455-.329-.2-1.506.425-1.991l3.965-3.057a1.831,1.831,0,0,0,.578-.893l1.773-5.812c.281-.923,1.094-1.393,1.376-.8" transform="translate(-417.448 -285.673)" fill="#fff"/>
            </g>
          </g>
        </g>
        <g id="Group_341" data-name="Group 341" transform="translate(485.447 307.11)" opacity="0.5">
          <g id="Group_340" data-name="Group 340">
            <g id="Group_339" data-name="Group 339" clip-path="url(#clip-path-19)">
              <path id="Path_611" data-name="Path 611" d="M443.645,275.649l1.772,3.766a.424.424,0,0,0,.579.225l3.963-1.52c.63-.242.881.645.425,1.5L447.515,285a1.783,1.783,0,0,0-.22,1.033l.677,4.874c.107.774-.551,1.791-1.114,1.722l-3.545-.438a.869.869,0,0,0-.714.411l-3.546,4.532c-.563.72-1.221.463-1.113-.436l.677-5.654a.827.827,0,0,0-.221-.778l-2.868-2.072c-.455-.329-.2-1.505.426-1.991l3.964-3.057a1.832,1.832,0,0,0,.578-.893l1.773-5.812c.281-.923,1.094-1.393,1.376-.8" transform="translate(-435.295 -275.382)" fill="#fff"/>
            </g>
          </g>
        </g>
        <g id="Group_344" data-name="Group 344" transform="translate(474.755 319.638)" opacity="0.15">
          <g id="Group_343" data-name="Group 343">
            <g id="Group_342" data-name="Group 342" clip-path="url(#clip-path-12)">
              <path id="Path_612" data-name="Path 612" d="M431.552,288.307a.471.471,0,0,0-.393-.007l-3.967,1.52a.418.418,0,0,1-.574-.224l-.911-1.942,2.606-.995a.429.429,0,0,1,.393.007c.316.19,2.741,1.585,2.846,1.64" transform="translate(-425.707 -286.616)" fill="#fff"/>
            </g>
          </g>
        </g>
        <g id="Group_347" data-name="Group 347" transform="translate(462.93 328.296)" opacity="0.15">
          <g id="Group_346" data-name="Group 346">
            <g id="Group_345" data-name="Group 345" clip-path="url(#clip-path-30)">
              <line id="Line_1" data-name="Line 1" x1="2.846" y1="1.647" transform="translate(0)" fill="#fff"/>
            </g>
          </g>
        </g>
      </g>
    </g>
    <g id="Group_351" data-name="Group 351" transform="translate(482.602 305.465)">
      <g id="Group_350" data-name="Group 350" clip-path="url(#clip-path-31)">
        <rect id="Rectangle_172" data-name="Rectangle 172" width="18.501" height="23.893" transform="translate(-0.223)" fill="url(#linear-gradient-6)"/>
      </g>
    </g>
    <g id="Group_362" data-name="Group 362">
      <g id="Group_361" data-name="Group 361" clip-path="url(#clip-path)">
        <g id="Group_354" data-name="Group 354" transform="translate(485.447 307.11)" opacity="0.5">
          <g id="Group_353" data-name="Group 353">
            <g id="Group_352" data-name="Group 352" clip-path="url(#clip-path-19)">
              <path id="Path_614" data-name="Path 614" d="M443.645,275.649l1.772,3.766a.424.424,0,0,0,.579.225l3.963-1.52c.629-.242.881.645.425,1.5L447.517,285a1.776,1.776,0,0,0-.221,1.033l.677,4.872c.107.775-.551,1.792-1.114,1.723l-3.545-.438a.868.868,0,0,0-.714.411l-3.546,4.532c-.563.72-1.221.463-1.113-.436l.677-5.654a.827.827,0,0,0-.221-.778l-2.868-2.072c-.455-.329-.2-1.505.425-1.991l3.965-3.057a1.832,1.832,0,0,0,.578-.893l1.772-5.812c.282-.923,1.1-1.393,1.377-.8" transform="translate(-435.295 -275.382)" fill="#fff"/>
            </g>
          </g>
        </g>
        <g id="Group_357" data-name="Group 357" transform="translate(494.658 308.162)" opacity="0.15">
          <g id="Group_356" data-name="Group 356">
            <g id="Group_355" data-name="Group 355" clip-path="url(#clip-path-34)">
              <path id="Path_615" data-name="Path 615" d="M449.4,278.017a.471.471,0,0,0-.393-.007l-3.967,1.52a.418.418,0,0,1-.574-.224l-.911-1.942,2.606-.995a.426.426,0,0,1,.393.007c.316.19,2.741,1.585,2.846,1.64" transform="translate(-443.554 -276.325)" fill="#fff"/>
            </g>
          </g>
        </g>
        <path id="Path_616" data-name="Path 616" d="M458.826,33.844l-8.915,3.82L448,47.173a1.435,1.435,0,0,1-2.487.662l-6.388-7.3-9.633,1.123a1.435,1.435,0,0,1-1.4-2.16l4.967-8.33-4.046-8.815a1.435,1.435,0,0,1,1.623-2l9.457,2.15,7.133-6.572a1.435,1.435,0,0,1,2.4.926l.878,9.659,8.454,4.753a1.436,1.436,0,0,1-.138,2.571" transform="translate(49.299 1.792)" fill="#e1e1e1"/>
        <path id="Path_617" data-name="Path 617" d="M413.273,19.136a1.255,1.255,0,0,1-.273.27,1.241,1.241,0,0,1-1.315.1l-4.969-2.612L401.747,19.5a1.249,1.249,0,0,1-1.811-1.317l.948-5.533-4.019-3.918a1.248,1.248,0,0,1,.691-2.129l5.555-.81L405.595.764a1.249,1.249,0,0,1,2.239,0L410.319,5.8l5.556.807a1.248,1.248,0,0,1,.691,2.129h0l-4.018,3.918.95,5.531a1.246,1.246,0,0,1-.224.952M397.357,7.557a.475.475,0,0,0-.07.138.462.462,0,0,0,.12.485l4.311,4.2L400.7,18.316a.474.474,0,0,0,.687.5l5.328-2.8,5.33,2.8a.473.473,0,0,0,.687-.5l-1.018-5.933,4.311-4.2a.48.48,0,0,0,.118-.485.461.461,0,0,0-.381-.32L409.8,6.507l-2.666-5.4a.473.473,0,0,0-.849,0l-2.663,5.4-5.959.867a.465.465,0,0,0-.311.183" transform="translate(45.681 0.008)" fill="#e1e1e1"/>
        <path id="Path_618" data-name="Path 618" d="M364.04,84.312c-8.4-4.867-19.946-4.2-32.7,3.161-25.678,14.825-46.493,51.153-46.493,81.14,0,15.089,5.284,25.67,13.8,30.586,1.967,1.136,9.69,5.546,9.685,5.588-.845,5.775-3.253,11.87-10.832,16.348-.486.287-.178.758.249,1.012.177.1,11.351,6.554,11.784,6.8a1.119,1.119,0,0,0,.534.165c11.6.02,25.047-7.8,28.786-24.028,1.4-.662,2.824-1.394,4.261-2.224,25.678-14.826,46.493-51.153,46.493-81.14,0-15.091-5.275-25.695-13.786-30.619-1.981-1.146-9.821-5.657-11.778-6.792" transform="translate(32.818 9.355)" fill="#31454d"/>
        <path id="Path_619" data-name="Path 619" d="M341.9,93.567c-25.677,14.825-46.493,51.152-46.493,81.14,0,20.344,9.587,32.529,23.766,33.642-.529,6.47-2.417,13.742-11.116,18.881-.687.406.213,1.183.8,1.184,11.6.019,25.045-7.8,28.786-24.03,1.4-.661,2.824-1.394,4.261-2.224,25.677-14.825,46.492-51.152,46.492-81.139S367.572,78.743,341.9,93.567" transform="translate(34.035 10.056)" fill="#3f5963"/>
        <path id="Path_620" data-name="Path 620" d="M307.987,215.163c-.42.261-.232.652.116.927-1.392-.8-11.476-6.607-11.635-6.708-.435-.261-.739-.725-.246-1.015,7.578-4.476,9.983-10.577,10.823-16.343l1.29.753,1.173.7a23.308,23.308,0,0,0,9.592,2.81c-.521,6.463-2.419,13.737-11.113,18.881" transform="translate(34.1 22.124)" fill="#1f2e35"/>
        <path id="Path_621" data-name="Path 621" d="M332.891,176.9q-1.867-1.317-1.865-4.753a14.07,14.07,0,0,1,1.83-6.794,12.466,12.466,0,0,1,4.677-5.005q2.847-1.643,4.676-.4t1.83,4.682a14.494,14.494,0,0,1-1.865,6.905,12.432,12.432,0,0,1-4.642,5.074q-2.78,1.606-4.643.287m-1.662-60.626,12.607-7.279-2.1,42.511-8.4,4.852Z" transform="translate(38.139 12.557)" fill="#fafafa"/>
        <g id="Group_360" data-name="Group 360" transform="translate(382.135 165.11)" opacity="0.2">
          <g id="Group_359" data-name="Group 359">
            <g id="Group_358" data-name="Group 358" clip-path="url(#clip-path-35)">
              <path id="Path_622" data-name="Path 622" d="M342.656,191.08c13.694-10.041,25.5-25.944,32.726-43.028-13.694,10.041-25.5,25.944-32.726,43.028" transform="translate(-342.656 -148.052)"/>
            </g>
          </g>
        </g>
        <path id="Path_623" data-name="Path 623" d="M430.616,250.023c-4.744.05-8.279-3.269-10.5-7.452,14.226-17.5,23.849-40.8,23.849-61.188,0-15.118-5.292-25.731-13.829-30.646-1.971-1.133-9.8-5.643-11.763-6.781-8.4-4.85-19.932-4.18-32.674,3.176-25.678,14.825-46.493,51.152-46.493,81.14,0,15.088,5.272,25.689,13.78,30.616,1.983,1.149,9.8,5.637,11.74,6.767,8.4,4.9,19.969,4.245,32.747-3.134a71.517,71.517,0,0,0,9.709-6.8c8.638,6.833,19.168-.617,23.338-4.181.559-.478.62-1.523.095-1.518" transform="translate(39.082 16.228)" fill="#e1e1e1"/>
        <path id="Path_624" data-name="Path 624" d="M375.606,267.306c-15.539,0-25.192-12.651-25.192-33.015,0-29.709,20.7-65.827,46.131-80.512,7.113-4.107,13.915-6.189,20.214-6.189,15.539,0,25.192,12.651,25.192,33.016,0,19.488-9.077,42.76-23.687,60.731l-.3.372.225.425c2.621,4.939,6.423,7.709,10.733,7.832a.612.612,0,0,1-.159.246C425.791,252.749,419.9,257,413.8,257h0a11.768,11.768,0,0,1-7.459-2.629l-.459-.364-.452.374a70.969,70.969,0,0,1-9.61,6.731c-7.113,4.106-13.915,6.188-20.214,6.188" transform="translate(40.373 17.004)" fill="#fafafa"/>
        <path id="Path_625" data-name="Path 625" d="M416.831,146.941l0,1.449c15.091,0,24.467,12.376,24.467,32.291,0,19.331-9.014,42.427-23.524,60.275l-.607.745.451.849c2.413,4.549,5.808,7.345,9.7,8.046-3.1,2.467-8.216,5.76-13.447,5.76a11.062,11.062,0,0,1-7.009-2.472l-.919-.726-.9.745a70.129,70.129,0,0,1-9.511,6.663c-7,4.043-13.681,6.092-19.853,6.092-15.091,0-24.467-12.373-24.467-32.292,0-29.477,20.532-65.314,45.77-79.884,7-4.043,13.679-6.092,19.849-6.092Zm0,0c-6.2,0-13.187,2.02-20.577,6.286-25.678,14.825-46.493,51.152-46.493,81.139,0,21.357,10.561,33.741,25.915,33.741,6.2,0,13.189-2.021,20.578-6.286a71.428,71.428,0,0,0,9.709-6.8,12.44,12.44,0,0,0,7.908,2.786c6.378,0,12.487-4.451,15.429-6.967.558-.476.62-1.517.1-1.517h-.109c-4.691,0-8.19-3.3-10.393-7.452,14.226-17.5,23.849-40.8,23.849-61.19,0-21.356-10.561-33.739-25.915-33.74" transform="translate(40.298 16.93)" fill="#b183f2"/>
        <path id="Path_626" data-name="Path 626" d="M391.03,209.924a83.5,83.5,0,0,1,4.642-9.458A71.881,71.881,0,0,0,398.958,194a12.158,12.158,0,0,0,1.052-4.808q0-3.342-2-4.132t-5.321,1.129a19.486,19.486,0,0,0-5.659,5.029,31.108,31.108,0,0,0-4.17,7.331l-8.2-1.681a48.67,48.67,0,0,1,7.693-13.388,41.291,41.291,0,0,1,11.489-9.794q7.79-4.5,12.5-2.792t4.711,9.571a26.463,26.463,0,0,1-.914,7.034,34.44,34.44,0,0,1-2.238,6.037q-1.32,2.707-3.423,6.449a75.761,75.761,0,0,0-3.659,7.128,14.074,14.074,0,0,0-1.153,5.589l-10.234,5.908a23.211,23.211,0,0,1,1.595-8.691m-1.085,28.686q-1.865-1.318-1.865-4.753a14.081,14.081,0,0,1,1.83-6.795,12.47,12.47,0,0,1,4.677-5q2.846-1.644,4.675-.395t1.831,4.681a14.494,14.494,0,0,1-1.865,6.905,12.418,12.418,0,0,1-4.642,5.074q-2.78,1.606-4.643.287" transform="translate(43.166 19.636)" fill="#b183f2"/>
        <path id="Path_627" data-name="Path 627" d="M183.391,160.29l-51.3,29.7,20.377,34.644a4.632,4.632,0,0,0,1.949,2.181c2.435,1.38,16.826,9.715,17.623,10.175a4.711,4.711,0,0,0,6.883-2.74l22.125-63.769Z" transform="translate(15.219 18.468)" fill="#c36fc7"/>
        <path id="Path_628" data-name="Path 628" d="M183.391,160.29l-51.3,29.7,20.377,34.644a4.632,4.632,0,0,0,1.949,2.181c2.435,1.38,16.826,9.715,17.623,10.175a4.711,4.711,0,0,0,6.883-2.74l22.125-63.769Z" transform="translate(15.219 18.468)" fill="#55aa9a"/>
        <path id="Path_629" data-name="Path 629" d="M147.924,199.136,168.3,233.779a4.7,4.7,0,0,0,8.8-.579l22.125-63.768Z" transform="translate(17.043 19.521)" fill="#8ee8d8"/>
      </g>
    </g>
    <g id="Group_364" data-name="Group 364" transform="translate(57.945 0.001)">
      <g id="Group_363" data-name="Group 363" clip-path="url(#clip-path-36)">
        <rect id="Rectangle_177" data-name="Rectangle 177" width="227.125" height="272.61" transform="translate(0 -0.001)" fill="url(#linear-gradient-7)"/>
      </g>
    </g>
    <g id="Group_387" data-name="Group 387">
      <g id="Group_386" data-name="Group 386" clip-path="url(#clip-path)">
        <path id="Path_631" data-name="Path 631" d="M74.234,267.657V133.39a9.817,9.817,0,0,1,4.441-7.692L272.135,14.012c2.452-1.417,4.441-.269,4.441,2.563V150.842a9.816,9.816,0,0,1-4.441,7.692L78.675,270.221c-2.452,1.416-4.441.268-4.441-2.564" transform="translate(8.553 1.544)" fill="#8ee8d8"/>
        <path id="Path_632" data-name="Path 632" d="M127.009,149.629l-1.938-1.119a4.854,4.854,0,0,0-4.852,0l-11.78,6.8V139.2l21.818-12.6a6.792,6.792,0,0,0,3.4-5.882v-9.037a6.791,6.791,0,0,0-10.187-5.881L93.2,123.274a11.789,11.789,0,0,0-5.894,10.21v83.854A6.791,6.791,0,0,0,97.5,223.219l7.546-4.357a6.79,6.79,0,0,0,3.4-5.882V180.1l18.572-10.723a4.851,4.851,0,0,0,2.426-4.2V153.832a4.852,4.852,0,0,0-2.427-4.2" transform="translate(10.059 12.085)" fill="#e1e1e1"/>
        <g id="Group_367" data-name="Group 367" transform="translate(97.366 140.006)" opacity="0.1">
          <g id="Group_366" data-name="Group 366">
            <g id="Group_365" data-name="Group 365" clip-path="url(#clip-path-38)">
              <path id="Path_633" data-name="Path 633" d="M98.147,220.458l-.647.379a6.8,6.8,0,0,1-10.193-5.877V131.107a11.751,11.751,0,0,1,1.416-5.565l6.792,3.914a11.655,11.655,0,0,0-1.416,5.565v83.072a2.717,2.717,0,0,0,4.048,2.364" transform="translate(-87.307 -125.542)"/>
            </g>
          </g>
        </g>
        <path id="Path_634" data-name="Path 634" d="M107.738,138.718v23.954l18.539-10.7a1.639,1.639,0,0,1,2.458,1.42V164.7a4.83,4.83,0,0,1-2.413,4.182l-18.584,10.729v32.894a6.776,6.776,0,0,1-3.388,5.868l-6.87,3.966a2.719,2.719,0,0,1-4.078-2.355V136.922A11.785,11.785,0,0,1,99.3,126.713l29.975-17.307a2.453,2.453,0,0,1,3.68,2.124v8.737a6.74,6.74,0,0,1-3.37,5.838Z" transform="translate(10.761 12.567)" fill="#fafafa"/>
        <path id="Path_635" data-name="Path 635" d="M169.009,90.827a8.033,8.033,0,0,0-11.71-4.684l-7.505,4.338a8,8,0,0,0-3.825,5.23L123.6,197.575a4.189,4.189,0,0,0,2,4.517l2.052,1.182a4.181,4.181,0,0,0,4.182,0l9.044-5.219a8.138,8.138,0,0,0,2.966-3.178,15.246,15.246,0,0,0,1.662-4.238l3.636-18.579,18.29-10.561,1.9,7.55a4.248,4.248,0,0,0,1.729,2.409c.758.446,6.033,3.468,6.792,3.926s1.762.312,3-.4l11.041-6.379ZM154.143,146.4l3.926-20.208q.117-.519.234-1.071l4.149,16.472Z" transform="translate(14.229 9.802)" fill="#e1e1e1"/>
        <g id="Group_370" data-name="Group 370" transform="translate(181.654 168.377)" opacity="0.1">
          <g id="Group_369" data-name="Group 369">
            <g id="Group_368" data-name="Group 368" clip-path="url(#clip-path-39)">
              <path id="Path_636" data-name="Path 636" d="M173.215,167.733c-.994-.591-5.966-3.435-6.7-3.87a4.253,4.253,0,0,1-1.729-2.409l-1.9-7.55,5.064-2.922,3.624,14.386a4.423,4.423,0,0,0,1.639,2.364" transform="translate(-162.887 -150.982)"/>
            </g>
          </g>
        </g>
        <g id="Group_373" data-name="Group 373" transform="translate(172.531 121.259)" opacity="0.1">
          <g id="Group_372" data-name="Group 372">
            <g id="Group_371" data-name="Group 371" clip-path="url(#clip-path-40)">
              <path id="Path_637" data-name="Path 637" d="M165.647,142.791l-6.792-3.926-4.149-16.472v-.011c0-.022.011-.045.011-.067.357-1.606.714-3.435,1.1-5.465.48-2.532.926-5.23,1.349-8.119q.719,3.479,1.439,6.412c.48,1.952.926,3.624,1.349,5.03Z" transform="translate(-154.707 -108.732)"/>
            </g>
          </g>
        </g>
        <g id="Group_376" data-name="Group 376" transform="translate(137.73 102.87)" opacity="0.1">
          <g id="Group_375" data-name="Group 375">
            <g id="Group_374" data-name="Group 374" clip-path="url(#clip-path-41)">
              <path id="Path_638" data-name="Path 638" d="M130.511,200.128A1.587,1.587,0,0,0,132.485,202l-.022.089-.636.357a4.181,4.181,0,0,1-4.182,0l-2.052-1.182a4.189,4.189,0,0,1-2-4.517L145.968,94.885a7.808,7.808,0,0,1,1.115-2.643l6.792,3.926A7.451,7.451,0,0,0,152.76,98.8Z" transform="translate(-123.501 -92.242)"/>
            </g>
          </g>
        </g>
        <path id="Path_639" data-name="Path 639" d="M191.166,168.121,180.118,174.5q-1.855,1.072-2.993.4a4.226,4.226,0,0,1-1.729-2.41l-3.627-14.394-23.358,13.485-3.627,18.583a15.743,15.743,0,0,1-1.665,4.24,8.09,8.09,0,0,1-2.972,3.175l-8,4.62a1.6,1.6,0,0,1-2.356-1.724L152.037,99.149a8.019,8.019,0,0,1,3.824-5.227l7.213-4.164a3.917,3.917,0,0,1,5.715,2.286Zm-22.642-23.086-5.692-22.614q-.631-2.1-1.349-5.031t-1.434-6.41q-.632,4.326-1.348,8.113t-1.351,6.622L151.7,154.749Z" transform="translate(14.949 10.281)" fill="#fafafa"/>
        <path id="Path_640" data-name="Path 640" d="M238.273,133.66a82.884,82.884,0,0,0,5.119-10.416,92.209,92.209,0,0,0,3.792-11.353,97.4,97.4,0,0,0,2.364-11.91,91.233,91.233,0,0,0,.825-12.189,60.914,60.914,0,0,0-2.3-17.7q-2.309-7.494-6.468-11.576a15.722,15.722,0,0,0-3.212-2.431c-1.115-.636-5.587-3.234-6.691-3.87a15.251,15.251,0,0,0-6.948-2.041q-5.888-.335-13.048,3.8a48.325,48.325,0,0,0-13.07,11.241,74.84,74.84,0,0,0-10.1,16.026,94.374,94.374,0,0,0-8.788,39.479,60.8,60.8,0,0,0,2.3,17.765q2.292,7.494,6.491,11.6a15.255,15.255,0,0,0,3.245,2.453c1.1.625,5.52,3.19,6.613,3.825a15.263,15.263,0,0,0,7.037,2.041q5.888.284,13.07-3.847a42.556,42.556,0,0,0,5.788-4.015l2.766,3.178a5.974,5.974,0,0,0,1.271.993c.781.457,6.334,3.647,6.758,3.9a4.152,4.152,0,0,0,2.487.6,10.875,10.875,0,0,0,4.539-1.617l11.721-6.758Zm-10.461-27.992a54.558,54.558,0,0,1-3.4,11.464A36.918,36.918,0,0,1,219,126.2a26.827,26.827,0,0,1-7.294,6.256,14.023,14.023,0,0,1-6.825,2.208,20.245,20.245,0,0,1-2.576-6.435,52.039,52.039,0,0,1-1.182-12,71.791,71.791,0,0,1,1.182-13.316,54.558,54.558,0,0,1,3.39-11.464,37.441,37.441,0,0,1,5.442-9.111A26.876,26.876,0,0,1,218.5,76a13.7,13.7,0,0,1,6.7-2.141,20.483,20.483,0,0,1,2.61,6.491A52.418,52.418,0,0,1,228.995,92.3a73.111,73.111,0,0,1-1.182,13.371" transform="translate(20.709 5.778)" fill="#e1e1e1"/>
        <g id="Group_379" data-name="Group 379" transform="translate(200.456 88.35)" opacity="0.1">
          <g id="Group_378" data-name="Group 378">
            <g id="Group_377" data-name="Group 377" clip-path="url(#clip-path-42)">
              <path id="Path_641" data-name="Path 641" d="M198.115,152.848c-1.416-.814-5.308-3.078-6.334-3.658a15.255,15.255,0,0,1-3.245-2.453q-4.2-4.1-6.491-11.6a60.8,60.8,0,0,1-2.3-17.765,91.77,91.77,0,0,1,2.3-20.408,92.781,92.781,0,0,1,5.888-17.743l6.792,3.926a94.328,94.328,0,0,0-8.186,38.151,60.667,60.667,0,0,0,2.3,17.754q2.292,7.511,6.491,11.609a16.023,16.023,0,0,0,2.788,2.186" transform="translate(-179.747 -79.222)"/>
            </g>
          </g>
        </g>
        <g id="Group_382" data-name="Group 382" transform="translate(225.593 79.644)" opacity="0.1">
          <g id="Group_381" data-name="Group 381">
            <g id="Group_380" data-name="Group 380" clip-path="url(#clip-path-43)">
              <path id="Path_642" data-name="Path 642" d="M228.606,74.267a7.606,7.606,0,0,0-5.409-2.844c-.191-.013-.39,0-.587,0a20.494,20.494,0,0,1,2.605,6.483A52.417,52.417,0,0,1,226.4,89.846a73.11,73.11,0,0,1-1.182,13.371,54.558,54.558,0,0,1-3.4,11.464,36.918,36.918,0,0,1-5.409,9.067A26.827,26.827,0,0,1,209.112,130a14.023,14.023,0,0,1-6.825,2.208,9.234,9.234,0,0,0,.814,1.115,7.387,7.387,0,0,0,5.442,2.8,13.485,13.485,0,0,0,7.36-2.2,26.827,26.827,0,0,0,7.294-6.256,37.338,37.338,0,0,0,5.409-9.067,54.465,54.465,0,0,0,3.4-11.476A73.021,73.021,0,0,0,233.19,93.76a52.418,52.418,0,0,0-1.182-11.944,18.092,18.092,0,0,0-3.4-7.55" transform="translate(-202.287 -71.416)"/>
            </g>
          </g>
        </g>
        <g id="Group_385" data-name="Group 385" transform="translate(244.998 154.649)" opacity="0.1">
          <g id="Group_384" data-name="Group 384">
            <g id="Group_383" data-name="Group 383" clip-path="url(#clip-path-44)">
              <path id="Path_643" data-name="Path 643" d="M221.616,138.672c-.636.58-1.271,1.138-1.929,1.673l2.766,3.178a5.975,5.975,0,0,0,1.271.993c.758.446,5.989,3.446,6.7,3.87a6.039,6.039,0,0,1-1.182-.948Z" transform="translate(-219.687 -138.672)"/>
            </g>
          </g>
        </g>
        <path id="Path_644" data-name="Path 644" d="M253.128,150.436,241.406,157.2a10.993,10.993,0,0,1-4.531,1.611,4.692,4.692,0,0,1-3.733-1.579l-7.631-8.772a43.247,43.247,0,0,1-7.716,5.689q-7.168,4.139-13.071,3.845a15.045,15.045,0,0,1-10.1-4.393q-4.2-4.1-6.494-11.6a60.937,60.937,0,0,1-2.3-17.759,94.3,94.3,0,0,1,8.791-39.481,74.81,74.81,0,0,1,10.1-16.022,48.667,48.667,0,0,1,13.071-11.247q7.166-4.137,13.05-3.8A15.19,15.19,0,0,1,240.9,58.108q4.172,4.082,6.473,11.584a60.73,60.73,0,0,1,2.3,17.694,90.894,90.894,0,0,1-.822,12.19,97.552,97.552,0,0,1-2.362,11.913,92.208,92.208,0,0,1-3.8,11.344,81.8,81.8,0,0,1-5.122,10.424Zm-52.7-34.617a52.455,52.455,0,0,0,1.18,12.01,18.105,18.105,0,0,0,3.4,7.55,7.442,7.442,0,0,0,5.437,2.8,13.536,13.536,0,0,0,7.358-2.2,26.761,26.761,0,0,0,7.3-6.256,37.205,37.205,0,0,0,5.418-9.068,54.885,54.885,0,0,0,3.394-11.47,72.574,72.574,0,0,0,1.18-13.371,52.105,52.105,0,0,0-1.18-11.945,18.2,18.2,0,0,0-3.394-7.551,7.6,7.6,0,0,0-5.418-2.845,13.079,13.079,0,0,0-7.3,2.135,26.871,26.871,0,0,0-7.358,6.324A37.71,37.71,0,0,0,205,91.04a54.59,54.59,0,0,0-3.4,11.47,72.217,72.217,0,0,0-1.18,13.308" transform="translate(21.411 6.183)" fill="#fafafa"/>
      </g>
    </g>
  </g>
</svg>
