<svg xmlns="http://www.w3.org/2000/svg" width="160" height="214" viewBox="0 0 160 214">
  <g id="Group_3871" data-name="Group 3871" transform="translate(-237 -437)">
    <g id="Layer_1" transform="translate(246 437)">
      <path id="Path_1" data-name="Path 1" d="M162.236,125.237a9.735,9.735,0,0,0-19.456,0,9.391,9.391,0,0,0,7.073,8.964v71.583h5.311V134.2A9.391,9.391,0,0,0,162.236,125.237Z" transform="translate(-81.522 -63.802)" fill="#fff"/>
      <path id="Path_2" data-name="Path 2" d="M152.508,76.575a9.374,9.374,0,1,0-9.728-9.367A9.554,9.554,0,0,0,152.508,76.575Z" transform="translate(-81.522 -57.84)" fill="#fff"/>
      <ellipse id="Ellipse_1" data-name="Ellipse 1" cx="6.821" cy="6.568" rx="6.821" ry="6.568" transform="translate(96.257 2.799)" fill="#fff"/>
      <path id="Path_3" data-name="Path 3" d="M204.381,103.116a6.573,6.573,0,1,0-6.821-6.568A6.7,6.7,0,0,0,204.381,103.116Z" transform="translate(-85.257 -61.142)" fill="#fff"/>
      <path id="Path_4" data-name="Path 4" d="M131.067,144.781l-8.079-13.109a9.141,9.141,0,0,0,2.684-6.424,9.749,9.749,0,0,0-19.037-2.557H90.141a6.821,6.821,0,0,0-6.28-4.011,6.573,6.573,0,1,0,0,13.136,6.821,6.821,0,0,0,6.28-4.011h16.493a9.646,9.646,0,0,0,9.309,6.81,10.166,10.166,0,0,0,2.469-.341l8.088,13.118a6.36,6.36,0,0,0-1.258,4.854,6.6,6.6,0,0,0,4.091,5.069V205.8h5.311v-48.5a6.517,6.517,0,0,0,4.091-6.981A6.779,6.779,0,0,0,131.067,144.781Z" transform="translate(-77.04 -63.803)" fill="#fff"/>
      <path id="Path_5" data-name="Path 5" d="M217.867,115.688a6.821,6.821,0,0,0-6.28,4.011H195.094a9.646,9.646,0,0,0-9.309-6.81,10.166,10.166,0,0,0-2.469.341l-6.523-10.588a9.141,9.141,0,0,0,2.684-6.424,9.735,9.735,0,1,0-9.728,9.367,10.167,10.167,0,0,0,2.469-.341l6.523,10.588a9.032,9.032,0,0,0,0,12.849l-8.088,13.136a7.522,7.522,0,0,0-.9-.09,6.7,6.7,0,0,0-6.821,6.568,6.562,6.562,0,0,0,4.165,6.047v48.47H172.4v-48.47a6.562,6.562,0,0,0,4.165-6.047,6.372,6.372,0,0,0-1.342-3.876l8.1-13.136a10.166,10.166,0,0,0,2.469.341,9.638,9.638,0,0,0,9.309-6.81H211.6a6.821,6.821,0,0,0,6.28,4.011,6.573,6.573,0,1,0-.009-13.136Z" transform="translate(-82.698 -60.821)" fill="#fff"/>
      <path id="Path_6" data-name="Path 6" d="M101.071,103.116a6.573,6.573,0,1,0-6.821-6.568A6.7,6.7,0,0,0,101.071,103.116Z" transform="translate(-78.213 -61.142)" fill="#fff"/>
      <ellipse id="Ellipse_2" data-name="Ellipse 2" cx="6.821" cy="6.568" rx="6.821" ry="6.568" transform="translate(32.082 2.799)" fill="#fff"/>
      <path id="Path_7" data-name="Path 7" d="M135.3,105.585a9.374,9.374,0,1,0-9.728-9.367A9.554,9.554,0,0,0,135.3,105.585Z" transform="translate(-80.349 -60.821)" fill="#fff"/>
      <path id="Path_8" data-name="Path 8" d="M203.512,144.89a9.554,9.554,0,0,0-9.728,9.367,9.034,9.034,0,0,0,1.584,5.1L184.81,170.991v37.792h5.311V172.911l9.253-10.2a9.939,9.939,0,0,0,4.137.915,9.374,9.374,0,1,0,0-18.735Z" transform="translate(-84.388 -66.784)" fill="#fff"/>
      <path id="Path_9" data-name="Path 9" d="M110.586,154.257a9.735,9.735,0,1,0-9.728,9.367A10.08,10.08,0,0,0,105,162.71l9.253,10.2v35.872h5.311V170.991L109,159.354A9.107,9.107,0,0,0,110.586,154.257Z" transform="translate(-78.001 -66.784)" fill="#fff"/>
    </g>
    <g id="Group_3870" data-name="Group 3870" transform="translate(237 599)">
      <g id="Group_2" data-name="Group 2" transform="translate(0 44.571)">
        <g id="Group_1" data-name="Group 1" transform="translate(0 0)">
          <path id="Path_10" data-name="Path 10" d="M2.67,12.022V5.665H.07v-.9H6.34v.9h-2.6v6.357Zm12.7-7.261H16.45v7.261H15.367V8.789H11.016v3.233H9.933V4.761h1.083V7.884h4.351Zm6.848,6.362h4.423v.9H21.131V4.761h5.35v.9H22.214V7.9h3.8v.882h-3.8Zm16.115.985a5.408,5.408,0,0,1-1.655-.254,3.413,3.413,0,0,1-1.252-.663h0l.4-.807a3.312,3.312,0,0,0,1.107.605,4.224,4.224,0,0,0,1.4.236h0a2.611,2.611,0,0,0,1.408-.305A.938.938,0,0,0,40.2,10.1h0a.792.792,0,0,0-.253-.605,1.814,1.814,0,0,0-.632-.357q-.373-.127-1.053-.282h0a11.559,11.559,0,0,1-1.384-.392,2.275,2.275,0,0,1-.9-.605,1.58,1.58,0,0,1-.373-1.106h0a1.817,1.817,0,0,1,.319-1.049,2.153,2.153,0,0,1,.969-.743A4.052,4.052,0,0,1,38.51,4.68h0a5.294,5.294,0,0,1,1.324.167,3.581,3.581,0,0,1,1.113.478h0l-.355.83a3.9,3.9,0,0,0-1.017-.444,3.983,3.983,0,0,0-1.065-.15h0a2.4,2.4,0,0,0-1.378.323.974.974,0,0,0-.463.83h0a.772.772,0,0,0,.259.605,1.813,1.813,0,0,0,.65.363,9.288,9.288,0,0,0,1.041.277h0A11.206,11.206,0,0,1,40,8.351a2.283,2.283,0,0,1,.891.605,1.541,1.541,0,0,1,.373,1.089h0a1.8,1.8,0,0,1-.325,1.043,2.191,2.191,0,0,1-.981.743,4.219,4.219,0,0,1-1.625.277Zm12.589-.086-.836-1.815H46.05l-.83,1.815H44.1l3.436-7.261h1.071l3.448,7.261ZM46.429,9.377H49.7L48.066,5.821Zm9.159,2.645V4.761h1.083v6.362h4.1v.9Zm9.923-.9h4.417v.9h-5.5V4.761h5.35v.9H65.511V7.9h3.8v.882h-3.8Zm10.789.985a5.388,5.388,0,0,1-1.649-.254,3.349,3.349,0,0,1-1.252-.663h0l.4-.807a3.3,3.3,0,0,0,1.113.605,4.172,4.172,0,0,0,1.39.236h0a2.592,2.592,0,0,0,1.408-.305.935.935,0,0,0,.469-.818h0a.783.783,0,0,0-.259-.605,1.75,1.75,0,0,0-.626-.357q-.373-.127-1.059-.282h0a11.207,11.207,0,0,1-1.378-.392,2.275,2.275,0,0,1-.9-.605,1.564,1.564,0,0,1-.379-1.106h0a1.793,1.793,0,0,1,.325-1.049,2.153,2.153,0,0,1,.969-.743,4.052,4.052,0,0,1,1.613-.282h0a5.271,5.271,0,0,1,1.318.167,3.66,3.66,0,0,1,1.119.478h0l-.361.83a3.9,3.9,0,0,0-1.017-.444,3.962,3.962,0,0,0-1.059-.15h0a2.428,2.428,0,0,0-1.384.323.977.977,0,0,0-.457.83h0a.772.772,0,0,0,.259.605,1.752,1.752,0,0,0,.644.363,9.7,9.7,0,0,0,1.047.277h0a10.868,10.868,0,0,1,1.372.392,2.275,2.275,0,0,1,.9.605,1.541,1.541,0,0,1,.373,1.089h0a1.8,1.8,0,0,1-.325,1.043,2.188,2.188,0,0,1-.987.743,4.219,4.219,0,0,1-1.625.277Zm15.634,0a4.318,4.318,0,0,1-2.052-.484A3.645,3.645,0,0,1,88.449,10.3a3.555,3.555,0,0,1-.524-1.908h0a3.544,3.544,0,0,1,.524-1.9,3.58,3.58,0,0,1,1.438-1.325,4.354,4.354,0,0,1,2.058-.484h0a4.412,4.412,0,0,1,1.625.288,3.28,3.28,0,0,1,1.258.841h0l-.7.657A2.881,2.881,0,0,0,91.988,5.6h0a3.181,3.181,0,0,0-1.522.363,2.689,2.689,0,0,0-1.456,2.426h0a2.689,2.689,0,0,0,1.456,2.432,3.181,3.181,0,0,0,1.522.363h0a2.887,2.887,0,0,0,2.136-.876h0l.7.657a3.328,3.328,0,0,1-1.264.847,4.381,4.381,0,0,1-1.631.294Zm10.109,0a4.379,4.379,0,0,1-2.07-.484,3.664,3.664,0,0,1-1.444-1.331,3.563,3.563,0,0,1-.524-1.9h0a3.553,3.553,0,0,1,.524-1.9,3.61,3.61,0,0,1,1.444-1.331,4.379,4.379,0,0,1,2.07-.484h0a4.354,4.354,0,0,1,2.058.484,3.623,3.623,0,0,1,1.444,1.325,3.575,3.575,0,0,1,.518,1.9h0a3.586,3.586,0,0,1-.518,1.908,3.679,3.679,0,0,1-1.444,1.325,4.354,4.354,0,0,1-2.058.484Zm0-.922a3.1,3.1,0,0,0,1.5-.363,2.727,2.727,0,0,0,1.432-2.432h0a2.707,2.707,0,0,0-.385-1.423,2.735,2.735,0,0,0-1.047-1,3.1,3.1,0,0,0-1.5-.363h0a3.156,3.156,0,0,0-1.51.363,2.708,2.708,0,0,0-1.444,2.426h0a2.708,2.708,0,0,0,1.444,2.432,3.156,3.156,0,0,0,1.51.363Zm16.151.836h-1.035l-.012-5.29L114.4,11.14h-.493l-2.744-4.374v5.256h-1.041V4.761h.891l3.165,5.106L117.3,4.761h.891Zm7.642-7.261a3.611,3.611,0,0,1,2.317.674A2.253,2.253,0,0,1,129,7.3h0a2.247,2.247,0,0,1-.842,1.856,3.611,3.611,0,0,1-2.317.674h-1.878v2.2h-1.083V4.761ZM125.8,8.922a2.52,2.52,0,0,0,1.571-.421,1.435,1.435,0,0,0,.542-1.2h0a1.441,1.441,0,0,0-.542-1.21,2.52,2.52,0,0,0-1.571-.421h-1.841V8.922Zm12.48,3.1-.83-1.815h-4.032l-.83,1.815h-1.119L134.9,4.761h1.071l3.442,7.261ZM133.8,9.377h3.274l-1.637-3.556ZM148.39,4.761h1.083v7.261h-.885l-4.549-5.411v5.411h-1.083V4.761h.885l4.549,5.417Zm11.68,0-3.009,4.754v2.507h-1.077V9.492l-3.009-4.731h1.161l2.425,3.832L159,4.761Z" transform="translate(-0.07 -4.68)" fill="#fff"/>
        </g>
      </g>
      <g id="Group_4" data-name="Group 4" transform="translate(0 0)">
        <g id="Group_3" data-name="Group 3">
          <path id="Path_11" data-name="Path 11" d="M24.337,54.4l-2.032-6.655H10.012L7.98,54.4H1.48l11.1-34.978h7.205L30.883,54.4ZM11.695,42.14h8.927l-4.46-14.618Zm36.027-9.71H42.246V45.836a2.866,2.866,0,0,0,.6,2.028,2.7,2.7,0,0,0,2.009.623h2.87V54.4H43.836q-7.826,0-7.826-8.6h0V32.43H33.094V26.67H36.01V19.813h6.236V26.67h5.476Zm17.156,0H59.395V45.836a2.866,2.866,0,0,0,.6,2.028,2.712,2.712,0,0,0,2.017.623h2.87V54.4H60.985q-7.818,0-7.818-8.6h0V32.43H50.242V26.67h2.924V19.813h6.228V26.67h5.484Zm7.6-9.061a3.541,3.541,0,0,1-2.715-1.176,4.147,4.147,0,0,1-1.086-2.924h0a4.159,4.159,0,0,1,1.086-2.932,3.541,3.541,0,0,1,2.715-1.176h0A3.549,3.549,0,0,1,75.2,16.336a4.159,4.159,0,0,1,1.086,2.932h0A4.147,4.147,0,0,1,75.2,22.192a3.549,3.549,0,0,1-2.722,1.176Zm-3.133,3.3h6.189V54.4H69.346Zm16.311,0,6.189,21.273L98.035,26.67h6.585L95.561,54.4H88.046L79.025,26.67Zm25.6-3.3a3.525,3.525,0,0,1-2.715-1.176,4.147,4.147,0,0,1-1.086-2.924h0a4.159,4.159,0,0,1,1.086-2.932,3.525,3.525,0,0,1,2.715-1.176h0a3.549,3.549,0,0,1,2.722,1.176,4.159,4.159,0,0,1,1.086,2.932h0a4.147,4.147,0,0,1-1.086,2.924,3.549,3.549,0,0,1-2.722,1.176Zm-3.133,3.3h6.189V54.4h-6.189Zm24.975,5.759h-5.484V45.836a2.866,2.866,0,0,0,.6,2.028,2.712,2.712,0,0,0,2.017.623h2.87V54.4h-3.886q-7.826,0-7.826-8.6h0V32.43h-2.924V26.67h2.924V19.813h6.228V26.67h5.484Zm2.878,8.007a17.848,17.848,0,0,1,1.481-7.463,11.845,11.845,0,0,1,4.018-5,9.814,9.814,0,0,1,5.685-1.747h0a9.06,9.06,0,0,1,4.793,1.247,10.225,10.225,0,0,1,3.3,3.161h0V26.67h6.236V54.4h-6.236V50.34a9.612,9.612,0,0,1-3.3,3.231,9.156,9.156,0,0,1-4.84,1.273h0a9.543,9.543,0,0,1-5.639-1.8,12.14,12.14,0,0,1-4.018-5.075,18.143,18.143,0,0,1-1.481-7.533Zm19.274.1a9.972,9.972,0,0,0-.884-4.381,6.733,6.733,0,0,0-2.389-2.8,5.828,5.828,0,0,0-3.227-.975h0a5.718,5.718,0,0,0-3.18.948,6.823,6.823,0,0,0-2.366,2.783,9.626,9.626,0,0,0-.907,4.328h0a9.909,9.909,0,0,0,.907,4.372,7.043,7.043,0,0,0,2.381,2.88,5.551,5.551,0,0,0,3.165,1h0a5.828,5.828,0,0,0,3.227-.975,6.733,6.733,0,0,0,2.389-2.8,9.971,9.971,0,0,0,.884-4.381Z" transform="translate(-1.48 -15.16)" fill="#fff"/>
        </g>
      </g>
    </g>
  </g>
</svg>
