<svg id="united-states-of-america" xmlns="http://www.w3.org/2000/svg" width="37.306" height="37.306" viewBox="0 0 37.306 37.306">
  <g id="Group_40" data-name="Group 40" transform="translate(0.077)">
    <rect id="Rectangle_14" data-name="Rectangle 14" width="37.139" height="0.001" transform="translate(0.007 20.398)" fill="#c42126"/>
    <rect id="Rectangle_15" data-name="Rectangle 15" width="33.269" height="0.001" transform="translate(1.941 10.215)" fill="#c42126"/>
    <rect id="Rectangle_16" data-name="Rectangle 16" width="35.914" height="0.001" transform="translate(0.618 13.609)" fill="#c42126"/>
    <path id="Path_30" data-name="Path 30" d="M101.779,431.346h0Z" transform="translate(-93.839 -397.373)" fill="#c42126"/>
    <path id="Path_31" data-name="Path 31" d="M224.08,0c-.366,0-.73.013-1.091.034h2.182C224.809.013,224.446,0,224.08,0Z" transform="translate(-205.504 0)" fill="#c42126"/>
    <rect id="Rectangle_17" data-name="Rectangle 17" width="37.151" height="0.001" transform="translate(0 17.003)" fill="#c42126"/>
  </g>
  <path id="Path_32" data-name="Path 32" d="M290.1,46.918h8.907a18.749,18.749,0,0,0-3.65-3.393h-6.688A17.735,17.735,0,0,1,290.1,46.918Z" transform="translate(-265.932 -40.097)" fill="#e7e7e7"/>
  <path id="Path_33" data-name="Path 33" d="M246.961,3.824h6.688A18.55,18.55,0,0,0,243.97.43H243.4C245.088.643,245.865,1.9,246.961,3.824Z" transform="translate(-224.227 -0.396)" fill="#dc3027"/>
  <path id="Path_34" data-name="Path 34" d="M329.51,133.1a18.523,18.523,0,0,0-1.323-3.393H317.94c.208,1.089.371,2.227.493,3.393Z" transform="translate(-292.9 -119.494)" fill="#e7e7e7"/>
  <path id="Path_35" data-name="Path 35" d="M300.732,90.006h10.823a18.658,18.658,0,0,0-2.214-3.394h-9.455A29.964,29.964,0,0,1,300.732,90.006Z" transform="translate(-276.268 -79.791)" fill="#dc3027"/>
  <path id="Path_36" data-name="Path 36" d="M329.178,219.286h11.3c.054-.574.084-1.156.084-1.744,0-.556-.029-1.106-.077-1.65h-11.3C329.217,217.022,329.217,218.158,329.178,219.286Z" transform="translate(-303.253 -198.89)" fill="#e7e7e7"/>
  <path id="Path_37" data-name="Path 37" d="M330.326,176.2a18.578,18.578,0,0,0-.619-3.393H318.154c.116,1.111.193,2.248.23,3.393Z" transform="translate(-293.097 -159.192)" fill="#dc3027"/>
  <path id="Path_38" data-name="Path 38" d="M315.465,305.469h10.393a18.51,18.51,0,0,0,1.345-3.394H315.967C315.844,303.242,315.676,304.38,315.465,305.469Z" transform="translate(-290.62 -278.284)" fill="#e7e7e7"/>
  <path id="Path_39" data-name="Path 39" d="M332.946,262.381a18.538,18.538,0,0,0,.638-3.393H321.936c-.04,1.146-.119,2.283-.237,3.393Z" transform="translate(-296.363 -238.59)" fill="#dc3027"/>
  <path id="Path_40" data-name="Path 40" d="M295.8,391.654a18.759,18.759,0,0,0,3.7-3.393h-8.752a17.333,17.333,0,0,1-1.458,3.393Z" transform="translate(-266.507 -357.682)" fill="#e7e7e7"/>
  <g id="Group_41" data-name="Group 41" transform="translate(17.864 27.185)">
    <path id="Path_41" data-name="Path 41" d="M303.625,348.561h9.081a18.684,18.684,0,0,0,2.245-3.394H304.481A29.557,29.557,0,0,1,303.625,348.561Z" transform="translate(-297.576 -345.167)" fill="#dc3027"/>
    <path id="Path_42" data-name="Path 42" d="M226.931,473.461l-.113,0Z" transform="translate(-226.818 -463.353)" fill="#dc3027"/>
    <path id="Path_43" data-name="Path 43" d="M236.837,434.693a18.566,18.566,0,0,0,10.636-3.333h-6.751C239.524,433.424,238.734,434.693,236.837,434.693Z" transform="translate(-236.048 -424.572)" fill="#dc3027"/>
  </g>
  <path id="Path_44" data-name="Path 44" d="M228.931,473.522c-.226,0-.451-.005-.676-.013C228.482,473.517,228.707,473.522,228.931,473.522Z" transform="translate(-210.278 -436.216)" fill="#c42126"/>
  <path id="Path_45" data-name="Path 45" d="M72.867,43.525H57.4a18.748,18.748,0,0,0-3.65,3.393H74.3A17.732,17.732,0,0,0,72.867,43.525Z" transform="translate(-49.514 -40.097)" fill="#f3f4f5"/>
  <path id="Path_46" data-name="Path 46" d="M100.092,3.824h15.469C114.465,1.9,113.07.643,111.378.43h-1.607A18.548,18.548,0,0,0,100.092,3.824Z" transform="translate(-92.209 -0.396)" fill="#e73625"/>
  <path id="Path_47" data-name="Path 47" d="M8.835,133.1H34.261c-.121-1.166-.285-2.3-.493-3.393H10.158A18.524,18.524,0,0,0,8.835,133.1Z" transform="translate(-8.139 -119.494)" fill="#f3f4f5"/>
  <path id="Path_48" data-name="Path 48" d="M27.851,86.609A18.677,18.677,0,0,0,25.637,90h23.61a29.912,29.912,0,0,0-.845-3.394Z" transform="translate(-23.618 -79.788)" fill="#e73625"/>
  <path id="Path_49" data-name="Path 49" d="M0,217.546c0,.588.031,1.17.084,1.744H26.351c.039-1.128.039-2.265,0-3.393H.079C.031,216.44,0,216.989,0,217.546Z" transform="translate(-0.002 -198.892)" fill="#f3f4f5"/>
  <path id="Path_50" data-name="Path 50" d="M.978,176.2H27.253c-.037-1.145-.114-2.282-.23-3.393H1.6A18.554,18.554,0,0,0,.978,176.2Z" transform="translate(-0.901 -159.192)" fill="#e73625"/>
  <path id="Path_51" data-name="Path 51" d="M34.565,302.072H9.175a18.518,18.518,0,0,0,1.345,3.394H34.062C34.273,304.377,34.441,303.24,34.565,302.072Z" transform="translate(-8.453 -278.281)" fill="#f3f4f5"/>
  <path id="Path_52" data-name="Path 52" d="M1.706,262.381H27.1c.118-1.111.2-2.247.237-3.393H1.068A18.559,18.559,0,0,0,1.706,262.381Z" transform="translate(-0.984 -238.59)" fill="#e73625"/>
  <path id="Path_53" data-name="Path 53" d="M58.457,391.654h15.28a17.327,17.327,0,0,0,1.458-3.393H54.753A18.752,18.752,0,0,0,58.457,391.654Z" transform="translate(-50.441 -357.682)" fill="#f3f4f5"/>
  <g id="Group_42" data-name="Group 42" transform="translate(2.068 27.185)">
    <path id="Path_54" data-name="Path 54" d="M26.254,345.166A18.684,18.684,0,0,0,28.5,348.56H48.94a29.587,29.587,0,0,0,.856-3.394Z" transform="translate(-26.254 -345.166)" fill="#e73625"/>
    <path id="Path_55" data-name="Path 55" d="M111.64,434.674l.113,0c.224.008.449.013.676.013,1.9,0,3.444-1.269,4.642-3.333H101.793A18.555,18.555,0,0,0,111.64,434.674Z" transform="translate(-95.844 -424.571)" fill="#e73625"/>
  </g>
  <path id="Path_56" data-name="Path 56" d="M19.2.123A18.648,18.648,0,0,0,1.008,17.086H19.2V.123Z" transform="translate(-0.929 -0.113)" fill="#283991"/>
  <g id="Group_43" data-name="Group 43" transform="translate(0.628 1.293)">
    <path id="Path_57" data-name="Path 57" d="M33.3,134.187l.284.875H34.5l-.745.541.284.876-.745-.541-.744.541.284-.876-.745-.541h.921Z" transform="translate(-30.191 -124.911)" fill="#efefef"/>
    <path id="Path_58" data-name="Path 58" d="M33.3,173.438l.284.876H34.5l-.745.541.284.876-.745-.541-.744.541.284-.876-.745-.541h.921Z" transform="translate(-30.191 -161.071)" fill="#efefef"/>
    <path id="Path_59" data-name="Path 59" d="M72.55,75.3l.284.875h.92l-.745.541.284.875-.744-.541-.745.541.284-.875-.745-.541h.921Z" transform="translate(-66.354 -70.658)" fill="#efefef"/>
    <path id="Path_60" data-name="Path 60" d="M72.55,114.554l.284.875h.92l-.745.541.284.876-.744-.541-.745.541.284-.876-.745-.541h.921Z" transform="translate(-66.354 -106.825)" fill="#efefef"/>
    <path id="Path_61" data-name="Path 61" d="M72.55,153.812l.284.876h.92l-.745.54.284.876-.744-.541-.745.541.284-.876-.745-.54h.921Z" transform="translate(-66.354 -142.991)" fill="#efefef"/>
    <path id="Path_62" data-name="Path 62" d="M8.728,165.6l-.284-.876.745-.541h-.92l-.021-.064c-.1.313-.192.629-.277.949l.013-.01Z" transform="translate(-7.971 -152.482)" fill="#efefef"/>
    <path id="Path_63" data-name="Path 63" d="M37.183,97.218l.744-.541.745.541-.284-.876.745-.541h-.921l-.284-.875-.284.875H37.3c-.063.1-.124.191-.185.288l.349.253Z" transform="translate(-34.822 -88.742)" fill="#efefef"/>
    <path id="Path_64" data-name="Path 64" d="M77.931,48.029l.744.541-.284-.875.744-.541H78.6q-.677.506-1.306,1.072l-.112.345Z" transform="translate(-71.735 -44.732)" fill="#efefef"/>
    <path id="Path_65" data-name="Path 65" d="M116.452,27.565l.745-.541.744.541-.284-.876.744-.541h-.92l-.039-.118c-.312.159-.621.325-.922.5l.216.157Z" transform="translate(-107.908 -25.273)" fill="#efefef"/>
    <path id="Path_66" data-name="Path 66" d="M111.809,55.671l.284.875h.92l-.745.541.284.876-.744-.541-.745.541.284-.876-.745-.541h.921Z" transform="translate(-102.521 -52.579)" fill="#efefef"/>
    <path id="Path_67" data-name="Path 67" d="M111.809,94.929l.284.875h.92l-.745.541.284.876-.744-.541-.745.541.284-.876L110.6,95.8h.921Z" transform="translate(-102.521 -88.745)" fill="#efefef"/>
    <path id="Path_68" data-name="Path 68" d="M111.809,134.187l.284.875h.92l-.745.541.284.876-.744-.541-.745.541.284-.876-.745-.541h.921Z" transform="translate(-102.521 -124.911)" fill="#efefef"/>
    <path id="Path_69" data-name="Path 69" d="M111.809,173.438l.284.876h.92l-.745.541.284.876-.744-.541-.745.541.284-.876-.745-.541h.921Z" transform="translate(-102.521 -161.071)" fill="#efefef"/>
    <path id="Path_70" data-name="Path 70" d="M151.067,36.038l.284.875h.92l-.744.541.284.875-.744-.541-.745.541.284-.875-.745-.541h.921Z" transform="translate(-138.687 -34.492)" fill="#efefef"/>
    <path id="Path_71" data-name="Path 71" d="M151.067,75.3l.284.875h.92l-.744.541.284.875-.744-.541-.745.541.284-.875-.745-.541h.921Z" transform="translate(-138.687 -70.658)" fill="#efefef"/>
    <path id="Path_72" data-name="Path 72" d="M151.067,114.554l.284.875h.92l-.744.541.284.876-.744-.541-.745.541.284-.876-.745-.541h.921Z" transform="translate(-138.687 -106.825)" fill="#efefef"/>
    <path id="Path_73" data-name="Path 73" d="M151.067,153.812l.284.876h.92l-.744.54.284.876-.744-.541-.745.541.284-.876-.745-.54h.921Z" transform="translate(-138.687 -142.991)" fill="#efefef"/>
    <path id="Path_74" data-name="Path 74" d="M190.325,16.413l.284.875h.92l-.745.541.284.876-.744-.541-.745.541.285-.876-.745-.541h.92Z" transform="translate(-174.853 -16.413)" fill="#efefef"/>
    <path id="Path_75" data-name="Path 75" d="M190.325,55.671l.284.875h.92l-.745.541.284.876-.744-.541-.745.541.285-.876-.745-.541h.92Z" transform="translate(-174.853 -52.579)" fill="#efefef"/>
    <path id="Path_76" data-name="Path 76" d="M190.325,94.929l.284.875h.92l-.745.541.284.876-.744-.541-.745.541.285-.876-.745-.541h.92Z" transform="translate(-174.853 -88.745)" fill="#efefef"/>
    <path id="Path_77" data-name="Path 77" d="M190.325,134.187l.284.875h.92l-.745.541.284.876-.744-.541-.745.541.285-.876-.745-.541h.92Z" transform="translate(-174.853 -124.911)" fill="#efefef"/>
    <path id="Path_78" data-name="Path 78" d="M190.325,173.438l.284.876h.92l-.745.541.284.876-.744-.541-.745.541.285-.876-.745-.541h.92Z" transform="translate(-174.853 -161.071)" fill="#efefef"/>
  </g>
</svg>
